
<svg width="731" height="911" viewBox="0 0 731 911" fill="none" xmlns="http://www.w3.org/2000/svg">
<line opacity="0.2" x1="175.5" y1="237" x2="175.5" y2="690" stroke="#8686B3" stroke-dasharray="5 5"/>
<line opacity="0.2" x1="318.5" y1="8" x2="318.5" y2="461" stroke="#8686B3" stroke-dasharray="5 5"/>
<line opacity="0.2" x1="315.5" y1="600" x2="315.5" y2="653" stroke="#8686B3" stroke-dasharray="5 5"/>
<line opacity="0.2" x1="456.5" y1="237" x2="456.5" y2="690" stroke="#8686B3" stroke-dasharray="5 5"/>
<rect opacity="0.05" width="365.864" height="368.956" rx="1.44" transform="matrix(0.866044 -0.499967 0.866044 0.499967 -0.129883 726.784)" fill="#8686B3"/>
<rect width="143.282" height="139.874" rx="1.44" transform="matrix(0.866044 -0.499967 0.866044 0.499967 194 643.39)" fill="#35B6FF" fill-opacity="0.15"/>
<rect width="143.282" height="139.874" rx="1.44" transform="matrix(0.866044 -0.499967 0.866044 0.499967 52 727.636)" fill="#FF00A8" fill-opacity="0.15"/>
<rect width="143.282" height="139.874" rx="1.44" transform="matrix(0.866044 -0.499967 0.866044 0.499967 191 809.636)" fill="#FF9900" fill-opacity="0.15"/>
<rect width="143.282" height="139.874" rx="1.44" transform="matrix(0.866044 -0.499967 0.866044 0.499967 332 726.636)" fill="#0066FF" fill-opacity="0.15"/>
<g clip-path="url(#clip0)">
<path d="M174.578 704.353H175.197L176.962 702.599L177.049 701.853C173.763 698.971 168.749 699.282 165.849 702.548C165.043 703.454 164.459 704.534 164.14 705.702C164.336 705.622 164.554 705.609 164.759 705.666L168.289 705.086C168.289 705.086 168.469 704.791 168.563 704.809C170.133 703.094 172.776 702.894 174.59 704.353H174.578Z" fill="#EA4335"/>
<path d="M179.478 705.702C179.072 704.216 178.24 702.881 177.082 701.861L174.604 704.323C175.65 705.172 176.247 706.453 176.221 707.796V708.233C177.439 708.233 178.426 709.215 178.426 710.425C178.426 711.636 177.439 712.617 176.221 712.617H171.81L171.37 713.061V715.69L171.81 716.128H176.221C179.388 716.152 181.976 713.62 182.001 710.471C182.015 708.559 181.068 706.771 179.478 705.702Z" fill="#4285F4"/>
<path d="M167.393 716.1H171.804V712.591H167.393C167.078 712.591 166.769 712.523 166.482 712.393L165.863 712.585L164.085 714.339L163.931 714.955C164.927 715.704 166.143 716.106 167.393 716.1Z" fill="#34A853"/>
<path d="M167.393 704.717C164.225 704.735 161.673 707.303 161.692 710.452C161.702 712.21 162.528 713.866 163.931 714.937L166.489 712.394C165.379 711.896 164.886 710.597 165.387 709.495C165.888 708.392 167.195 707.901 168.304 708.399C168.793 708.619 169.184 709.009 169.406 709.495L171.964 706.952C170.876 705.537 169.184 704.709 167.393 704.717Z" fill="#FBBC05"/>
<path d="M135.696 732.595C134.161 732.614 132.686 732.012 131.608 730.926C130.495 729.886 129.874 728.43 129.893 726.911C129.875 725.393 130.496 723.938 131.608 722.897C132.681 721.8 134.157 721.186 135.696 721.198C137.161 721.179 138.574 721.744 139.617 722.768L138.515 723.883C137.76 723.157 136.746 722.76 135.696 722.774C134.595 722.761 133.538 723.208 132.785 724.006C132.002 724.777 131.571 725.834 131.589 726.93C131.579 728.013 132.011 729.054 132.785 729.817C134.379 731.397 136.95 731.428 138.583 729.885C139.069 729.357 139.367 728.683 139.431 727.97H135.714V726.395H140.973C141.025 726.713 141.045 727.034 141.036 727.356C141.101 728.7 140.611 730.012 139.679 730.989C138.641 732.061 137.193 732.645 135.696 732.595ZM147.924 731.548C146.457 732.945 144.143 732.945 142.677 731.548C141.966 730.863 141.578 729.914 141.605 728.931C141.578 727.949 141.967 727 142.677 726.315C144.144 724.922 146.456 724.922 147.924 726.315C148.633 727 149.022 727.949 148.995 728.931C149.021 729.915 148.629 730.864 147.917 731.548H147.924ZM143.835 730.52C144.592 731.325 145.862 731.366 146.672 730.612C146.703 730.582 146.735 730.552 146.764 730.52C147.177 730.095 147.401 729.523 147.384 728.931C147.402 728.339 147.179 727.763 146.764 727.337C145.985 726.53 144.695 726.502 143.882 727.276C143.862 727.296 143.841 727.316 143.821 727.337C143.407 727.763 143.184 728.339 143.202 728.931C143.186 729.523 143.412 730.096 143.827 730.52H143.835ZM155.988 731.548C154.521 732.945 152.208 732.945 150.741 731.548C150.03 730.863 149.643 729.914 149.669 728.931C149.643 727.949 150.031 727 150.741 726.315C152.208 724.918 154.521 724.918 155.988 726.315C156.697 727 157.086 727.949 157.06 728.931C157.088 729.914 156.699 730.863 155.988 731.548ZM151.9 730.52C152.657 731.325 153.928 731.366 154.737 730.612C154.769 730.582 154.801 730.552 154.83 730.52C155.243 730.095 155.466 729.523 155.449 728.931C155.467 728.339 155.244 727.763 154.83 727.337C154.051 726.53 152.761 726.502 151.949 727.276C151.928 727.296 151.908 727.316 151.888 727.337C151.474 727.763 151.251 728.339 151.269 728.931C151.253 729.523 151.478 730.096 151.894 730.52H151.9ZM161.29 735.882C160.547 735.905 159.82 735.675 159.227 735.229C158.702 734.836 158.287 734.314 158.025 733.714L159.437 733.129C159.59 733.488 159.831 733.803 160.137 734.046C160.463 734.308 160.874 734.446 161.295 734.434C161.834 734.467 162.36 734.264 162.738 733.88C163.111 733.433 163.295 732.859 163.253 732.279V731.75H163.197C162.717 732.315 161.999 732.622 161.258 732.581C160.318 732.584 159.42 732.196 158.781 731.51C158.088 730.83 157.706 729.898 157.722 728.93C157.704 727.957 158.087 727.019 158.781 726.332C159.419 725.644 160.317 725.252 161.258 725.255C161.652 725.254 162.042 725.341 162.398 725.507C162.706 725.64 162.981 725.84 163.204 726.092H163.26V725.507H164.796V732.064C164.878 733.112 164.522 734.148 163.811 734.927C163.134 735.571 162.226 735.915 161.29 735.882ZM161.402 731.154C161.937 731.166 162.45 730.939 162.802 730.538C163.183 730.103 163.385 729.54 163.365 728.962C163.388 728.374 163.187 727.801 162.802 727.355C162.45 726.953 161.937 726.727 161.402 726.739C160.852 726.728 160.324 726.953 159.952 727.355C159.543 727.785 159.32 728.358 159.333 728.95C159.321 729.536 159.543 730.103 159.952 730.526C160.322 730.932 160.85 731.161 161.402 731.154ZM167.528 721.611V732.373H165.911V721.611H167.528ZM171.963 732.595C170.984 732.62 170.039 732.238 169.355 731.542C168.662 730.851 168.283 729.907 168.308 728.931C168.272 727.953 168.636 727.002 169.318 726.296C169.961 725.622 170.861 725.249 171.795 725.267C172.22 725.262 172.641 725.345 173.033 725.507C173.387 725.649 173.709 725.858 173.981 726.123C174.215 726.347 174.422 726.596 174.6 726.868C174.744 727.097 174.866 727.338 174.966 727.588L175.133 728.007L170.178 730.033C170.486 730.733 171.194 731.174 171.962 731.142C172.704 731.144 173.393 730.758 173.777 730.126L175.016 730.957C174.7 731.407 174.295 731.789 173.826 732.078C173.27 732.427 172.621 732.607 171.963 732.595ZM169.894 728.82L173.19 727.459C173.088 727.219 172.907 727.022 172.675 726.899C172.417 726.754 172.124 726.68 171.827 726.684C171.323 726.697 170.844 726.907 170.495 727.269C170.072 727.671 169.852 728.239 169.894 728.82Z" fill="#A8A8C1"/>
<path d="M183.603 732.595C180.784 732.643 178.461 730.411 178.412 727.609C178.411 727.542 178.411 727.472 178.413 727.405C178.347 724.603 180.579 722.28 183.397 722.215C183.465 722.213 183.535 722.213 183.603 722.213C185.012 722.17 186.365 722.768 187.276 723.838L186.384 724.7C185.714 723.863 184.683 723.394 183.609 723.437C182.579 723.414 181.583 723.811 180.853 724.533C180.093 725.292 179.687 726.332 179.731 727.402C179.686 728.472 180.093 729.512 180.853 730.272C181.583 730.995 182.579 731.39 183.609 731.367C184.809 731.38 185.948 730.85 186.706 729.926L187.598 730.813C187.131 731.368 186.545 731.812 185.883 732.112C185.168 732.442 184.389 732.607 183.603 732.595Z" fill="#A8A8C1"/>
<path d="M189.995 732.373H188.713V722.429H189.995V732.373Z" fill="#A8A8C1"/>
<path d="M192.089 726.388C193.488 725.008 195.746 725.008 197.144 726.388C197.807 727.085 198.164 728.015 198.135 728.974C198.164 729.932 197.807 730.863 197.144 731.56C195.746 732.94 193.488 732.94 192.089 731.56C191.426 730.863 191.069 729.932 191.098 728.974C191.069 728.015 191.425 727.085 192.089 726.388ZM193.043 730.76C193.863 731.621 195.231 731.659 196.099 730.844C196.128 730.817 196.156 730.788 196.183 730.76C196.636 730.278 196.874 729.634 196.846 728.975C196.876 728.316 196.637 727.672 196.183 727.19C195.363 726.328 193.995 726.291 193.127 727.106C193.098 727.133 193.07 727.162 193.043 727.19C192.591 727.672 192.352 728.316 192.38 728.975C192.354 729.633 192.595 730.274 193.049 730.754L193.043 730.76Z" fill="#A8A8C1"/>
<path d="M205.237 732.373H203.999V731.431H203.962C203.741 731.789 203.429 732.082 203.057 732.281C202.672 732.502 202.233 732.62 201.787 732.619C201.053 732.668 200.338 732.382 199.843 731.843C199.373 731.253 199.138 730.513 199.179 729.763V725.576H200.462V729.529C200.462 730.797 201.025 731.431 202.153 731.431C202.661 731.447 203.145 731.218 203.454 730.816C203.786 730.398 203.963 729.878 203.956 729.345V725.576H205.238V732.373H205.237Z" fill="#A8A8C1"/>
<path d="M209.592 732.595C208.712 732.597 207.874 732.218 207.3 731.554C206.657 730.848 206.314 729.925 206.339 728.974C206.314 728.023 206.657 727.099 207.3 726.394C207.874 725.731 208.712 725.351 209.592 725.353C210.079 725.346 210.561 725.46 210.991 725.685C211.37 725.874 211.691 726.161 211.92 726.516H211.976L211.92 725.575V722.429H213.203V732.373H211.964V731.431H211.908C211.679 731.786 211.358 732.073 210.979 732.263C210.552 732.485 210.076 732.601 209.592 732.595ZM209.803 731.431C210.389 731.44 210.951 731.197 211.345 730.766C211.78 730.273 212.003 729.629 211.964 728.974C212.003 728.319 211.78 727.675 211.345 727.182C210.567 726.331 209.243 726.269 208.387 727.043C208.339 727.087 208.292 727.134 208.248 727.182C207.812 727.671 207.589 728.313 207.629 728.967C207.589 729.62 207.812 730.262 208.248 730.751C208.643 731.193 209.21 731.44 209.803 731.431Z" fill="#A8A8C1"/>
</g>
<g clip-path="url(#clip1)">
<path d="M287.279 651.444C291.245 650.749 294.52 650.174 294.558 650.166L294.626 650.152L290.882 645.736C288.823 643.306 287.138 641.31 287.138 641.298C287.138 641.276 291.004 630.719 291.026 630.681C291.033 630.668 293.664 635.173 297.403 641.6C300.904 647.618 303.79 652.579 303.817 652.626L303.866 652.71L291.968 652.709L280.069 652.707L287.279 651.444V651.444ZM332.908 650.376C331.097 650.261 330.043 649.238 329.764 647.323C329.69 646.814 329.69 646.801 329.682 643.495L329.675 640.295H330.476H331.278L331.284 643.39C331.29 646.179 331.294 646.507 331.32 646.703C331.43 647.499 331.647 648.035 332.017 648.419C332.313 648.727 332.659 648.907 333.139 649.003C333.365 649.048 334.009 649.048 334.216 649.003C334.702 648.897 335.092 648.687 335.436 648.346C335.828 647.957 336.118 647.406 336.258 646.782L336.305 646.572L336.31 643.451L336.316 640.33H337.134H337.952V645.237V650.143H337.143H336.333V649.365C336.333 648.836 336.327 648.588 336.314 648.592C336.304 648.596 336.263 648.659 336.222 648.733C335.943 649.237 335.478 649.699 334.968 649.977C334.357 650.311 333.745 650.429 332.908 650.376L332.908 650.376ZM351.291 650.368C350.652 650.32 349.979 650.102 349.429 649.765C348.269 649.053 347.583 647.881 347.382 646.267C347.312 645.708 347.304 644.958 347.362 644.484C347.492 643.423 347.912 642.383 348.51 641.639C348.663 641.449 349.011 641.104 349.203 640.952C349.722 640.541 350.329 640.254 350.973 640.114C351.348 640.033 352.009 639.994 352.408 640.031C353.41 640.123 354.328 640.591 354.952 641.327C355.585 642.075 355.934 643.12 355.978 644.407C355.985 644.609 355.987 644.962 355.982 645.193L355.973 645.612L352.465 645.616L348.957 645.621V645.776C348.957 646.249 349.073 646.787 349.273 647.245C349.446 647.64 349.743 648.071 349.987 648.28C350.486 648.708 351.097 648.964 351.765 649.026C352.013 649.049 352.645 649.025 352.927 648.982C353.733 648.859 354.499 648.545 355.118 648.085C355.191 648.031 355.261 647.98 355.273 647.973C355.291 647.962 355.295 648.103 355.295 648.697L355.294 649.436L355.128 649.538C354.429 649.967 353.627 650.243 352.778 650.346C352.524 650.377 351.594 650.39 351.291 650.368L351.291 650.368ZM354.345 644.138C354.345 643.347 354.008 642.467 353.532 642.014C353.192 641.691 352.782 641.493 352.293 641.418C352.062 641.383 351.576 641.397 351.332 641.445C350.817 641.549 350.391 641.773 350.02 642.137C349.629 642.52 349.336 642.985 349.152 643.516C349.085 643.706 349.008 644.019 348.984 644.193L348.972 644.276H351.658H354.345V644.138ZM306.756 650.121C306.761 650.109 307.952 647.006 309.404 643.224L312.044 636.349L312.892 636.349L313.74 636.349L313.81 636.528C314.026 637.074 319.095 650.128 319.095 650.135C319.095 650.14 318.689 650.143 318.193 650.143L317.291 650.143L316.56 648.214L315.829 646.284L312.887 646.284L309.945 646.284L309.919 646.35C309.905 646.386 309.593 647.254 309.226 648.279L308.557 650.143L307.653 650.143C306.937 650.143 306.751 650.139 306.756 650.121V650.121ZM315.292 644.812C315.292 644.809 314.8 643.487 314.199 641.874C313.075 638.857 313.012 638.675 312.923 638.191C312.882 637.964 312.861 637.957 312.836 638.165C312.818 638.313 312.742 638.644 312.682 638.828C312.653 638.919 312.147 640.298 311.557 641.891C310.968 643.484 310.485 644.794 310.485 644.803C310.485 644.811 311.567 644.817 312.889 644.817C314.211 644.817 315.292 644.815 315.292 644.812V644.812ZM319.641 649.892V649.641L322.572 645.644L325.504 641.648L322.85 641.639L320.196 641.631L320.191 640.963L320.187 640.295H324.025H327.864V640.52V640.746L324.932 644.764C323.32 646.974 322 648.786 322 648.79C322 648.795 323.304 648.799 324.897 648.799H327.793V649.471V650.143H323.717H319.641V649.892ZM341.151 650.132C341.145 650.125 341.139 647.909 341.139 645.207V640.295H341.94H342.742V641.308C342.742 641.865 342.748 642.32 342.757 642.32C342.765 642.32 342.804 642.229 342.843 642.118C343.024 641.607 343.336 641.13 343.738 640.751C344.101 640.409 344.515 640.205 345.004 640.127C345.141 640.105 345.258 640.1 345.532 640.108C345.877 640.116 346.058 640.141 346.267 640.209L346.333 640.231V641.056V641.88L346.144 641.786C345.81 641.62 345.48 641.555 345.083 641.575C344.825 641.588 344.656 641.621 344.449 641.698C344.025 641.856 343.681 642.135 343.44 642.516C343.092 643.067 342.843 643.775 342.77 644.427C342.757 644.543 342.749 645.495 342.746 647.371L342.741 650.143H341.952C341.518 650.143 341.158 650.138 341.151 650.132ZM273 650.097C273 650.091 274.764 647.054 276.92 643.348L280.84 636.61L285.409 632.808C287.922 630.717 289.984 629.003 289.993 629C290.001 628.997 289.968 629.08 289.919 629.184C289.87 629.288 287.638 634.036 284.958 639.736L280.086 650.1L276.543 650.104C274.594 650.106 273 650.103 273 650.097V650.097Z" fill="#0089D6"/>
</g>
<path d="M455.34 723.692V729.363C464.953 729.363 472.438 720.076 469.294 710.003C467.919 705.601 464.421 702.102 460.019 700.728C449.945 697.583 440.658 705.069 440.658 714.682H446.343C446.344 714.682 446.344 714.681 446.344 714.681C446.345 708.647 452.316 703.983 458.659 706.285C461.009 707.138 462.883 709.012 463.736 711.361C466.038 717.7 461.381 723.669 455.353 723.677V718.024L455.352 718.023H449.685C449.684 718.023 449.684 718.024 449.684 718.024V723.692H455.34ZM449.683 728.048H445.328L445.327 728.047V723.692H449.684V728.047C449.684 728.047 449.683 728.048 449.683 728.048ZM445.33 723.692H441.68C441.678 723.692 441.677 723.691 441.677 723.691V720.042C441.677 720.042 441.678 720.039 441.68 720.039H445.328C445.329 720.039 445.33 720.041 445.33 720.041V723.692Z" fill="#0080FF"/>
<path d="M431.073 735.117C430.334 734.604 429.414 734.344 428.339 734.344H426V741.766H428.339C429.412 741.766 430.331 741.492 431.074 740.951C431.478 740.664 431.795 740.264 432.017 739.761C432.238 739.261 432.35 738.671 432.35 738.007C432.35 737.351 432.238 736.769 432.017 736.275C431.795 735.779 431.477 735.39 431.073 735.117ZM427.366 735.599H428.101C428.918 735.599 429.59 735.759 430.1 736.077C430.666 736.418 430.953 737.067 430.953 738.007C430.953 738.975 430.665 739.653 430.098 740.025H430.098C429.609 740.348 428.941 740.512 428.111 740.512H427.366V735.599ZM433.308 741.766H434.624V736.539H433.308V741.766ZM433.979 734.253C433.754 734.253 433.56 734.332 433.404 734.489C433.246 734.639 433.166 734.83 433.166 735.055C433.166 735.28 433.246 735.474 433.403 735.631C433.56 735.788 433.754 735.868 433.979 735.868C434.203 735.868 434.397 735.788 434.554 735.631C434.712 735.473 434.791 735.28 434.791 735.055C434.791 734.83 434.711 734.639 434.554 734.49C434.479 734.413 434.39 734.353 434.291 734.312C434.192 734.271 434.086 734.251 433.979 734.253ZM439.401 736.976C439.004 736.622 438.561 736.417 438.082 736.417C437.356 736.417 436.753 736.668 436.289 737.163C435.819 737.654 435.58 738.286 435.58 739.041C435.58 739.778 435.815 740.408 436.279 740.913C436.746 741.402 437.353 741.649 438.082 741.649C438.589 741.649 439.025 741.508 439.381 741.229V741.35C439.381 741.783 439.264 742.121 439.035 742.353C438.807 742.584 438.489 742.701 438.093 742.701C437.485 742.701 437.105 742.462 436.641 741.836L435.746 742.697L435.77 742.731C435.963 743.002 436.26 743.268 436.651 743.521C437.042 743.772 437.534 743.9 438.113 743.9C438.894 743.9 439.525 743.659 439.991 743.185C440.458 742.707 440.696 742.069 440.696 741.286V736.538H439.401V736.975V736.976ZM439.056 740.063C438.826 740.324 438.531 740.45 438.153 740.45C437.776 740.45 437.483 740.324 437.256 740.063C437.031 739.804 436.916 739.459 436.916 739.041C436.916 738.615 437.031 738.267 437.256 738.005C437.48 737.747 437.781 737.615 438.153 737.615C438.53 737.615 438.826 737.743 439.056 738.006C439.285 738.267 439.401 738.615 439.401 739.041C439.401 739.459 439.285 739.804 439.056 740.063ZM441.821 741.766H443.137V736.539H441.821V741.766ZM442.492 734.253C442.267 734.253 442.073 734.332 441.917 734.489C441.759 734.639 441.679 734.83 441.679 735.055C441.679 735.28 441.759 735.474 441.916 735.631C442.073 735.788 442.267 735.868 442.492 735.868C442.599 735.87 442.705 735.849 442.804 735.809C442.903 735.768 442.993 735.707 443.068 735.631C443.225 735.473 443.305 735.28 443.305 735.055C443.305 734.83 443.224 734.639 443.068 734.49C442.993 734.413 442.903 734.353 442.804 734.312C442.705 734.271 442.599 734.251 442.492 734.253H442.492ZM446.02 735.126H444.725V736.539H443.973V737.738H444.725V739.909C444.725 740.588 444.861 741.075 445.129 741.354C445.397 741.634 445.874 741.777 446.546 741.777C446.76 741.777 446.975 741.769 447.185 741.756L447.244 741.752V740.554L446.794 740.577C446.48 740.577 446.271 740.522 446.172 740.414C446.071 740.304 446.02 740.071 446.02 739.722V737.738H447.244V736.539H446.02V735.126ZM451.759 736.93C451.36 736.589 450.809 736.417 450.121 736.417C449.684 736.417 449.274 736.513 448.904 736.701C448.562 736.874 448.225 737.162 448.011 737.539L448.025 737.555L448.867 738.361C449.214 737.808 449.6 737.615 450.111 737.615C450.386 737.615 450.614 737.689 450.79 737.835C450.964 737.979 451.049 738.163 451.049 738.395V738.649C450.735 738.552 450.409 738.502 450.081 738.5C449.426 738.5 448.894 738.654 448.498 738.958C448.097 739.265 447.894 739.705 447.894 740.265C447.894 740.756 448.065 741.155 448.404 741.452C448.746 741.738 449.173 741.883 449.675 741.883C450.175 741.883 450.644 741.681 451.069 741.336V741.766H452.364V738.406C452.364 737.769 452.161 737.273 451.759 736.93ZM449.424 739.769C449.573 739.665 449.784 739.612 450.05 739.612C450.367 739.612 450.703 739.676 451.049 739.801V740.314C450.763 740.58 450.381 740.715 449.913 740.715C449.686 740.715 449.509 740.664 449.387 740.564C449.268 740.466 449.209 740.341 449.209 740.184C449.209 740.004 449.279 739.868 449.424 739.769ZM453.412 741.766H454.728V734.344H453.412V741.766ZM459.501 741.878C457.391 741.878 455.674 740.162 455.674 738.052C455.674 735.942 457.391 734.225 459.5 734.225C461.61 734.225 463.327 735.942 463.327 738.052C463.327 740.162 461.61 741.878 459.5 741.878H459.501ZM459.501 735.574C458.134 735.574 457.023 736.685 457.023 738.052C457.023 739.418 458.134 740.529 459.5 740.529C460.867 740.529 461.978 739.418 461.978 738.052C461.978 736.685 460.867 735.574 459.5 735.574L459.501 735.574ZM468.017 739.897C467.782 740.161 467.541 740.389 467.356 740.508V740.508C467.174 740.625 466.944 740.684 466.674 740.684C466.286 740.684 465.974 740.543 465.72 740.252C465.468 739.963 465.34 739.592 465.34 739.147C465.34 738.703 465.466 738.332 465.716 738.045C465.966 737.756 466.276 737.616 466.663 737.616C467.087 737.616 467.534 737.879 467.917 738.332L468.786 737.498C468.219 736.76 467.496 736.417 466.633 736.417C465.911 736.417 465.285 736.68 464.772 737.198C464.263 737.713 464.004 738.369 464.004 739.147C464.004 739.925 464.262 740.583 464.772 741.101C465.281 741.62 465.908 741.883 466.633 741.883C467.585 741.883 468.354 741.472 468.872 740.719L468.017 739.897ZM473.416 737.269C473.229 737.009 472.976 736.8 472.661 736.647C472.347 736.494 471.981 736.417 471.574 736.417C470.84 736.417 470.239 736.688 469.788 737.223C469.35 737.753 469.128 738.413 469.128 739.183C469.128 739.975 469.371 740.631 469.851 741.132C470.329 741.63 470.968 741.883 471.751 741.883C472.639 741.883 473.367 741.524 473.915 740.817L473.945 740.779L473.086 739.954C473.007 740.05 472.894 740.159 472.791 740.256C472.662 740.378 472.539 740.473 472.409 740.538C472.212 740.636 471.992 740.684 471.745 740.684C471.381 740.684 471.079 740.577 470.848 740.366C470.632 740.168 470.506 739.901 470.472 739.572H473.957L473.969 739.092C473.969 738.752 473.923 738.424 473.832 738.118C473.742 737.814 473.601 737.527 473.416 737.269ZM470.541 738.5C470.604 738.25 470.72 738.042 470.885 737.88C471.063 737.704 471.295 737.615 471.574 737.615C471.893 737.615 472.14 737.706 472.308 737.886C472.463 738.051 472.551 738.258 472.569 738.5H470.541ZM478.468 736.93C478.069 736.589 477.518 736.417 476.83 736.417C476.392 736.417 475.983 736.513 475.613 736.701C475.27 736.874 474.934 737.162 474.72 737.539L474.733 737.555L475.576 738.361C475.923 737.808 476.309 737.615 476.82 737.615C477.095 737.615 477.323 737.689 477.498 737.835C477.673 737.979 477.758 738.163 477.758 738.395V738.649C477.444 738.552 477.118 738.502 476.789 738.5C476.135 738.5 475.602 738.654 475.206 738.958C474.806 739.265 474.603 739.705 474.603 740.265C474.603 740.756 474.774 741.155 475.113 741.452C475.455 741.738 475.882 741.883 476.383 741.883C476.884 741.883 477.352 741.681 477.778 741.336V741.766H479.073V738.406C479.073 737.769 478.869 737.273 478.468 736.93ZM476.132 739.769C476.282 739.665 476.492 739.612 476.759 739.612C477.076 739.612 477.411 739.676 477.758 739.801V740.314C477.471 740.58 477.09 740.715 476.622 740.715C476.394 740.715 476.217 740.664 476.096 740.564C475.976 740.466 475.918 740.341 475.918 740.184C475.918 740.004 475.988 739.868 476.132 739.769ZM484.133 737.032C483.767 736.624 483.252 736.417 482.603 736.417C482.081 736.417 481.657 736.567 481.34 736.862V736.538H480.05V741.766H481.366V738.883C481.366 738.487 481.46 738.173 481.646 737.948C481.831 737.724 482.086 737.615 482.425 737.615C482.723 737.615 482.949 737.713 483.115 737.913C483.283 738.114 483.367 738.39 483.367 738.736V741.766H484.683V738.736C484.683 738.012 484.498 737.439 484.133 737.033V737.032Z" fill="#0080FF"/>
<g clip-path="url(#clip2)">
<path d="M304.5 807.24C304.5 807.763 304.558 808.186 304.661 808.497C304.791 808.847 304.947 809.187 305.129 809.514C305.202 809.627 305.231 809.74 305.231 809.839C305.231 809.981 305.144 810.122 304.953 810.263L304.031 810.857C303.9 810.941 303.768 810.984 303.651 810.984C303.504 810.984 303.358 810.913 303.212 810.786C303.014 810.581 302.838 810.359 302.685 810.122C302.538 809.882 302.392 809.613 302.231 809.288C301.089 810.588 299.655 811.238 297.928 811.238C296.699 811.238 295.718 810.899 295.001 810.221C294.284 809.543 293.918 808.638 293.918 807.508C293.918 806.307 294.357 805.333 295.25 804.598C296.142 803.863 297.328 803.496 298.836 803.496C299.333 803.496 299.845 803.538 300.387 803.609C300.929 803.68 301.485 803.793 302.07 803.92V802.888C302.07 801.815 301.836 801.066 301.382 800.628C300.914 800.19 300.123 799.978 298.996 799.978C298.484 799.978 297.957 800.035 297.416 800.162C296.874 800.289 296.347 800.444 295.835 800.642C295.601 800.741 295.425 800.797 295.323 800.826C295.22 800.854 295.147 800.868 295.089 800.868C294.884 800.868 294.781 800.727 294.781 800.43V799.738C294.781 799.512 294.811 799.342 294.884 799.243C294.957 799.144 295.089 799.046 295.294 798.947C295.806 798.692 296.421 798.48 297.138 798.311C297.855 798.127 298.616 798.043 299.421 798.043C301.163 798.043 302.436 798.424 303.256 799.187C304.061 799.95 304.471 801.108 304.471 802.662V807.24H304.5H304.5ZM298.557 809.387C299.041 809.387 299.538 809.303 300.065 809.133C300.592 808.963 301.06 808.653 301.455 808.229C301.69 807.96 301.865 807.664 301.953 807.325C302.041 806.986 302.099 806.576 302.099 806.095V805.502C301.655 805.398 301.206 805.318 300.753 805.262C300.296 805.206 299.837 805.178 299.377 805.177C298.396 805.177 297.679 805.361 297.196 805.742C296.713 806.124 296.479 806.661 296.479 807.367C296.479 808.031 296.655 808.525 297.021 808.865C297.372 809.218 297.884 809.387 298.557 809.387ZM310.31 810.913C310.046 810.913 309.871 810.871 309.754 810.772C309.637 810.687 309.534 810.489 309.446 810.221L306.007 799.3C305.919 799.017 305.875 798.834 305.875 798.735C305.875 798.509 305.992 798.381 306.227 798.381H307.661C307.939 798.381 308.129 798.424 308.232 798.523C308.349 798.608 308.437 798.805 308.524 799.074L310.983 808.427L313.266 799.074C313.34 798.791 313.427 798.608 313.544 798.523C313.662 798.438 313.867 798.382 314.13 798.382H315.301C315.579 798.382 315.769 798.424 315.886 798.523C316.003 798.608 316.106 798.805 316.164 799.074L318.477 808.54L321.009 799.074C321.096 798.791 321.199 798.608 321.301 798.523C321.418 798.438 321.609 798.382 321.872 798.382H323.233C323.467 798.382 323.599 798.495 323.599 798.735C323.599 798.805 323.584 798.876 323.57 798.961C323.555 799.046 323.526 799.159 323.467 799.314L319.94 810.235C319.852 810.518 319.75 810.701 319.633 810.786C319.516 810.871 319.325 810.927 319.077 810.927H317.818C317.54 810.927 317.35 810.885 317.232 810.786C317.115 810.687 317.013 810.503 316.954 810.221L314.686 801.108L312.432 810.207C312.359 810.489 312.271 810.673 312.154 810.772C312.037 810.871 311.832 810.913 311.569 810.913H310.31H310.31ZM329.117 811.295C328.356 811.295 327.595 811.21 326.863 811.04C326.131 810.871 325.561 810.687 325.18 810.475C324.946 810.348 324.785 810.207 324.726 810.08C324.669 809.955 324.639 809.82 324.638 809.684V808.963C324.638 808.667 324.755 808.525 324.975 808.525C325.065 808.526 325.154 808.54 325.239 808.568C325.326 808.596 325.458 808.653 325.604 808.709C326.121 808.929 326.661 809.094 327.214 809.204C327.788 809.316 328.371 809.373 328.956 809.373C329.878 809.373 330.595 809.218 331.093 808.907C331.59 808.596 331.854 808.144 331.854 807.565C331.854 807.169 331.722 806.844 331.459 806.576C331.195 806.307 330.698 806.067 329.981 805.841L327.858 805.205C326.79 804.88 326 804.4 325.516 803.764C325.034 803.143 324.785 802.45 324.785 801.716C324.785 801.122 324.917 800.6 325.18 800.147C325.443 799.695 325.795 799.3 326.234 798.989C326.673 798.664 327.17 798.424 327.756 798.254C328.341 798.085 328.956 798.014 329.6 798.014C329.922 798.014 330.258 798.028 330.58 798.071C330.917 798.113 331.224 798.17 331.532 798.226C331.824 798.297 332.103 798.367 332.366 798.452C332.63 798.537 332.834 798.622 332.981 798.706C333.186 798.82 333.332 798.933 333.42 799.06C333.508 799.173 333.552 799.328 333.552 799.526V800.19C333.552 800.487 333.434 800.642 333.215 800.642C333.098 800.642 332.908 800.585 332.659 800.472C331.824 800.105 330.888 799.921 329.849 799.921C329.014 799.921 328.356 800.049 327.902 800.317C327.449 800.585 327.214 800.995 327.214 801.574C327.214 801.97 327.361 802.309 327.653 802.578C327.946 802.846 328.488 803.114 329.263 803.355L331.342 803.99C332.395 804.315 333.156 804.767 333.61 805.347C334.064 805.926 334.283 806.59 334.283 807.325C334.283 807.932 334.152 808.483 333.903 808.963C333.639 809.444 333.288 809.868 332.834 810.207C332.381 810.56 331.839 810.814 331.21 810.998C330.551 811.196 329.863 811.295 329.117 811.295Z" fill="#A8A8C1"/>
<path d="M331.883 818.161C327.068 821.594 320.072 823.416 314.057 823.416C305.627 823.416 298.031 820.407 292.294 815.406C291.84 815.01 292.25 814.473 292.791 814.784C298.997 818.26 306.651 820.365 314.569 820.365C319.911 820.365 325.78 819.291 331.181 817.087C331.986 816.734 332.674 817.596 331.883 818.161ZM333.888 815.957C333.274 815.194 329.82 815.589 328.254 815.773C327.785 815.83 327.712 815.434 328.137 815.137C330.888 813.272 335.411 813.809 335.937 814.431C336.464 815.067 335.791 819.432 333.215 821.523C332.82 821.848 332.439 821.679 332.615 821.255C333.2 819.856 334.503 816.706 333.888 815.957Z" fill="#FF9900"/>
</g>
<rect opacity="0.05" width="365.864" height="368.956" rx="1.44" transform="matrix(0.866044 -0.499967 0.866044 0.499967 -0.129883 447.784)" fill="#8686B3"/>
<rect opacity="0.4" width="143.282" height="139.874" rx="1.44" transform="matrix(0.866044 -0.499967 0.866044 0.499967 197 364.636)" fill="#357AFF"/>
<rect opacity="0.4" width="143.282" height="139.874" rx="1.44" transform="matrix(0.866044 -0.499967 0.866044 0.499967 55 448.883)" fill="#357AFF"/>
<rect opacity="0.4" width="143.282" height="139.874" rx="1.44" transform="matrix(0.866044 -0.499967 0.866044 0.499967 194 530.883)" fill="#357AFF"/>
<rect opacity="0.4" width="143.282" height="139.874" rx="1.44" transform="matrix(0.866044 -0.499967 0.866044 0.499967 335 447.883)" fill="#357AFF"/>
<g clip-path="url(#clip3)">
<path d="M446.385 454.381C445.488 454.381 444.641 453.982 444.068 453.259L435.346 442.419C434.773 441.697 434.549 440.775 434.773 439.877L437.888 426.346C438.087 425.449 438.685 424.727 439.508 424.328L452.117 418.297C452.516 418.098 452.964 417.998 453.413 417.998C453.861 417.998 454.31 418.098 454.709 418.297L467.318 424.303C468.14 424.702 468.738 425.424 468.938 426.321L472.052 439.853C472.252 440.75 472.052 441.672 471.479 442.394L462.758 453.234C462.184 453.932 461.337 454.356 460.44 454.356L446.386 454.381H446.385Z" fill="#326DE6"/>
<path d="M466.021 438.93C465.996 438.93 465.996 438.93 466.021 438.93H465.996C465.971 438.93 465.946 438.93 465.946 438.906C465.897 438.906 465.847 438.881 465.797 438.881C465.622 438.856 465.473 438.831 465.323 438.831C465.249 438.831 465.174 438.831 465.074 438.806H465.049C464.526 438.756 464.102 438.706 463.704 438.582C463.529 438.507 463.479 438.407 463.429 438.307C463.429 438.283 463.404 438.283 463.404 438.258L463.081 438.158C463.234 436.986 463.175 435.796 462.906 434.644C462.634 433.483 462.162 432.379 461.511 431.38L461.76 431.156V431.106C461.76 430.981 461.785 430.857 461.884 430.732C462.183 430.458 462.557 430.234 463.006 429.96C463.081 429.91 463.155 429.885 463.23 429.835C463.38 429.76 463.504 429.686 463.654 429.586C463.679 429.561 463.728 429.536 463.778 429.486C463.803 429.461 463.828 429.461 463.828 429.436C464.177 429.137 464.252 428.639 464.003 428.315C463.878 428.14 463.654 428.041 463.429 428.041C463.23 428.041 463.056 428.115 462.881 428.24L462.831 428.29C462.782 428.315 462.757 428.365 462.707 428.39C462.582 428.514 462.482 428.614 462.383 428.738C462.333 428.788 462.283 428.863 462.208 428.913C461.859 429.287 461.536 429.586 461.212 429.81C461.137 429.86 461.062 429.885 460.987 429.885C460.938 429.885 460.888 429.885 460.838 429.86H460.788L460.489 430.059C460.165 429.71 459.816 429.411 459.467 429.112C457.965 427.938 456.157 427.22 454.259 427.044L454.234 426.72L454.184 426.67C454.11 426.595 454.01 426.521 453.985 426.346C453.96 425.947 454.01 425.499 454.06 425.001V424.976C454.06 424.901 454.085 424.801 454.11 424.726C454.135 424.577 454.159 424.427 454.184 424.253V424.029C454.184 423.58 453.835 423.206 453.412 423.206C453.212 423.206 453.013 423.306 452.864 423.456C452.714 423.605 452.639 423.804 452.639 424.029V424.228C452.639 424.402 452.664 424.552 452.714 424.702C452.739 424.776 452.739 424.851 452.764 424.951V424.976C452.814 425.474 452.889 425.923 452.839 426.321C452.814 426.496 452.714 426.57 452.639 426.645L452.59 426.695L452.565 427.019C452.116 427.069 451.667 427.119 451.219 427.218C449.3 427.642 447.606 428.614 446.285 430.009L446.036 429.835H445.986C445.936 429.835 445.886 429.86 445.836 429.86C445.762 429.86 445.687 429.835 445.612 429.785C445.288 429.561 444.964 429.237 444.615 428.863C444.566 428.813 444.516 428.738 444.441 428.689C444.341 428.564 444.242 428.464 444.117 428.34C444.092 428.315 444.042 428.29 443.992 428.24C443.968 428.215 443.943 428.215 443.943 428.19C443.788 428.063 443.595 427.992 443.394 427.991C443.17 427.991 442.946 428.091 442.821 428.265C442.572 428.589 442.647 429.087 442.996 429.386C443.02 429.386 443.02 429.411 443.045 429.411C443.095 429.436 443.12 429.486 443.17 429.511C443.32 429.611 443.444 429.685 443.594 429.76C443.669 429.785 443.743 429.835 443.818 429.885C444.266 430.159 444.64 430.383 444.939 430.657C445.064 430.782 445.064 430.906 445.064 431.031V431.081L445.313 431.305C445.263 431.38 445.214 431.43 445.188 431.504C443.943 433.473 443.469 435.791 443.793 438.083L443.469 438.183C443.469 438.208 443.444 438.208 443.444 438.233C443.394 438.332 443.32 438.432 443.17 438.507C442.796 438.631 442.348 438.681 441.824 438.731H441.799C441.725 438.731 441.625 438.731 441.55 438.756C441.401 438.756 441.251 438.781 441.077 438.806C441.027 438.806 440.977 438.831 440.927 438.831C440.902 438.831 440.878 438.831 440.853 438.856C440.404 438.955 440.13 439.379 440.205 439.778C440.279 440.127 440.603 440.351 441.002 440.351C441.077 440.351 441.127 440.351 441.201 440.326C441.226 440.326 441.251 440.326 441.251 440.301C441.301 440.301 441.351 440.276 441.401 440.276C441.575 440.226 441.7 440.177 441.849 440.102C441.924 440.077 441.999 440.027 442.074 440.002H442.098C442.572 439.828 442.996 439.678 443.394 439.628H443.444C443.594 439.628 443.693 439.703 443.768 439.753C443.793 439.753 443.793 439.778 443.818 439.778L444.167 439.728C444.765 441.572 445.911 443.217 447.431 444.413C447.78 444.687 448.129 444.911 448.503 445.135L448.353 445.459C448.353 445.484 448.378 445.484 448.378 445.509C448.428 445.609 448.478 445.733 448.428 445.908C448.279 446.282 448.054 446.655 447.78 447.079V447.104C447.73 447.179 447.681 447.229 447.631 447.303C447.531 447.428 447.456 447.553 447.356 447.702C447.332 447.727 447.307 447.777 447.282 447.827C447.282 447.852 447.257 447.876 447.257 447.876C447.058 448.3 447.207 448.774 447.581 448.948C447.68 448.998 447.78 449.023 447.88 449.023C448.179 449.023 448.478 448.823 448.627 448.549C448.627 448.524 448.652 448.499 448.652 448.499C448.677 448.45 448.702 448.4 448.727 448.375C448.802 448.2 448.827 448.076 448.877 447.926L448.951 447.702C449.126 447.204 449.25 446.805 449.475 446.456C449.574 446.307 449.699 446.282 449.799 446.232C449.823 446.232 449.823 446.232 449.848 446.207L450.023 445.883C451.119 446.307 452.316 446.531 453.512 446.531C454.234 446.531 454.982 446.456 455.68 446.282C456.119 446.184 456.551 446.059 456.975 445.908L457.125 446.182C457.15 446.182 457.15 446.182 457.175 446.207C457.299 446.232 457.399 446.282 457.499 446.431C457.698 446.78 457.847 447.204 458.022 447.677V447.702L458.097 447.926C458.147 448.076 458.171 448.225 458.246 448.375C458.271 448.425 458.296 448.45 458.321 448.499C458.321 448.524 458.346 448.549 458.346 448.549C458.495 448.848 458.794 449.023 459.093 449.023C459.193 449.023 459.293 448.998 459.392 448.948C459.567 448.848 459.716 448.699 459.766 448.499C459.816 448.3 459.816 448.076 459.717 447.876C459.717 447.852 459.692 447.852 459.692 447.827C459.667 447.777 459.642 447.727 459.617 447.702C459.542 447.553 459.442 447.428 459.343 447.303C459.293 447.229 459.243 447.179 459.193 447.104V447.079C458.919 446.655 458.67 446.282 458.545 445.908C458.496 445.733 458.545 445.634 458.57 445.509C458.57 445.484 458.595 445.484 458.595 445.459L458.47 445.16C459.791 444.388 460.913 443.291 461.76 441.946C462.208 441.248 462.557 440.475 462.806 439.703L463.105 439.753C463.13 439.753 463.13 439.728 463.155 439.728C463.255 439.678 463.33 439.603 463.479 439.603H463.529C463.928 439.653 464.351 439.803 464.825 439.977H464.85C464.925 440.002 464.999 440.052 465.074 440.077C465.224 440.151 465.348 440.201 465.523 440.251C465.572 440.251 465.622 440.276 465.672 440.276C465.697 440.276 465.722 440.276 465.747 440.301C465.822 440.326 465.871 440.326 465.946 440.326C466.32 440.326 466.644 440.077 466.744 439.753C466.744 439.454 466.47 439.055 466.021 438.931V438.93ZM454.483 437.709L453.387 438.233L452.29 437.709L452.016 436.538L452.764 435.591H453.985L454.733 436.538L454.483 437.709H454.483ZM460.987 435.118C461.181 435.942 461.24 436.792 461.162 437.635L457.349 436.538C457 436.439 456.801 436.09 456.876 435.741C456.901 435.641 456.951 435.541 457.025 435.467L460.04 432.75C460.464 433.448 460.788 434.246 460.987 435.118V435.118ZM458.844 431.255L455.58 433.573C455.306 433.747 454.932 433.697 454.708 433.423C454.633 433.349 454.608 433.249 454.583 433.149L454.359 429.087C456.056 429.283 457.637 430.047 458.844 431.255ZM451.618 429.212C451.892 429.162 452.141 429.112 452.415 429.062L452.191 433.049C452.166 433.398 451.892 433.697 451.518 433.697C451.418 433.697 451.294 433.672 451.219 433.623L447.905 431.255C448.926 430.234 450.197 429.536 451.618 429.212V429.212ZM446.709 432.75L449.674 435.392C449.948 435.616 449.973 436.04 449.749 436.314C449.674 436.413 449.574 436.488 449.45 436.513L445.587 437.635C445.438 435.94 445.811 434.221 446.709 432.75ZM446.036 439.503L449.998 438.831C450.322 438.806 450.621 439.03 450.696 439.354C450.721 439.503 450.721 439.628 450.671 439.753L449.151 443.416C447.755 442.519 446.634 441.148 446.036 439.503H446.036ZM455.131 444.462C454.558 444.587 453.985 444.662 453.387 444.662C452.515 444.662 451.667 444.512 450.87 444.263L452.839 440.7C453.038 440.475 453.362 440.376 453.636 440.525C453.753 440.597 453.854 440.69 453.935 440.799L455.854 444.263C455.63 444.338 455.38 444.388 455.131 444.462H455.131ZM459.991 440.999C459.368 441.995 458.545 442.793 457.598 443.416L456.028 439.653C455.954 439.354 456.078 439.03 456.377 438.88C456.477 438.831 456.602 438.806 456.726 438.806L460.713 439.479C460.564 440.027 460.314 440.525 459.991 440.999Z" fill="white"/>
</g>
<g clip-path="url(#clip4)">
<path d="M310.385 384.381C309.488 384.381 308.641 383.982 308.068 383.259L299.346 372.419C298.773 371.697 298.549 370.775 298.773 369.877L301.888 356.346C302.087 355.449 302.685 354.727 303.508 354.328L316.117 348.297C316.516 348.098 316.964 347.998 317.413 347.998C317.861 347.998 318.31 348.098 318.709 348.297L331.318 354.303C332.14 354.702 332.738 355.424 332.938 356.321L336.052 369.853C336.252 370.75 336.052 371.672 335.479 372.394L326.758 383.234C326.184 383.932 325.337 384.356 324.44 384.356L310.386 384.381H310.385Z" fill="#326DE6"/>
<path d="M330.021 368.93C329.996 368.93 329.996 368.93 330.021 368.93H329.996C329.971 368.93 329.946 368.93 329.946 368.906C329.897 368.906 329.847 368.881 329.797 368.881C329.622 368.856 329.473 368.831 329.323 368.831C329.249 368.831 329.174 368.831 329.074 368.806H329.049C328.526 368.756 328.102 368.706 327.704 368.582C327.529 368.507 327.479 368.407 327.429 368.307C327.429 368.283 327.404 368.283 327.404 368.258L327.081 368.158C327.234 366.986 327.175 365.796 326.906 364.644C326.634 363.483 326.162 362.379 325.511 361.38L325.76 361.156V361.106C325.76 360.981 325.785 360.857 325.884 360.732C326.183 360.458 326.557 360.234 327.006 359.96C327.081 359.91 327.155 359.885 327.23 359.835C327.38 359.76 327.504 359.686 327.654 359.586C327.679 359.561 327.728 359.536 327.778 359.486C327.803 359.461 327.828 359.461 327.828 359.436C328.177 359.137 328.252 358.639 328.003 358.315C327.878 358.14 327.654 358.041 327.429 358.041C327.23 358.041 327.056 358.115 326.881 358.24L326.831 358.29C326.782 358.315 326.757 358.365 326.707 358.39C326.582 358.514 326.482 358.614 326.383 358.738C326.333 358.788 326.283 358.863 326.208 358.913C325.859 359.287 325.536 359.586 325.212 359.81C325.137 359.86 325.062 359.885 324.987 359.885C324.938 359.885 324.888 359.885 324.838 359.86H324.788L324.489 360.059C324.165 359.71 323.816 359.411 323.467 359.112C321.965 357.938 320.157 357.22 318.259 357.044L318.234 356.72L318.184 356.67C318.11 356.595 318.01 356.521 317.985 356.346C317.96 355.947 318.01 355.499 318.06 355.001V354.976C318.06 354.901 318.085 354.801 318.11 354.726C318.135 354.577 318.159 354.427 318.184 354.253V354.029C318.184 353.58 317.835 353.206 317.412 353.206C317.212 353.206 317.013 353.306 316.864 353.456C316.714 353.605 316.639 353.804 316.639 354.029V354.228C316.639 354.402 316.664 354.552 316.714 354.702C316.739 354.776 316.739 354.851 316.764 354.951V354.976C316.814 355.474 316.889 355.923 316.839 356.321C316.814 356.496 316.714 356.57 316.639 356.645L316.59 356.695L316.565 357.019C316.116 357.069 315.667 357.119 315.219 357.218C313.3 357.642 311.606 358.614 310.285 360.009L310.036 359.835H309.986C309.936 359.835 309.886 359.86 309.836 359.86C309.762 359.86 309.687 359.835 309.612 359.785C309.288 359.561 308.964 359.237 308.615 358.863C308.566 358.813 308.516 358.738 308.441 358.689C308.341 358.564 308.242 358.464 308.117 358.34C308.092 358.315 308.042 358.29 307.992 358.24C307.968 358.215 307.943 358.215 307.943 358.19C307.788 358.063 307.595 357.992 307.394 357.991C307.17 357.991 306.946 358.091 306.821 358.265C306.572 358.589 306.647 359.087 306.996 359.386C307.02 359.386 307.02 359.411 307.045 359.411C307.095 359.436 307.12 359.486 307.17 359.511C307.32 359.611 307.444 359.685 307.594 359.76C307.669 359.785 307.743 359.835 307.818 359.885C308.266 360.159 308.64 360.383 308.939 360.657C309.064 360.782 309.064 360.906 309.064 361.031V361.081L309.313 361.305C309.263 361.38 309.214 361.43 309.188 361.504C307.943 363.473 307.469 365.791 307.793 368.083L307.469 368.183C307.469 368.208 307.444 368.208 307.444 368.233C307.394 368.332 307.32 368.432 307.17 368.507C306.796 368.631 306.348 368.681 305.824 368.731H305.799C305.725 368.731 305.625 368.731 305.55 368.756C305.401 368.756 305.251 368.781 305.077 368.806C305.027 368.806 304.977 368.831 304.927 368.831C304.902 368.831 304.878 368.831 304.853 368.856C304.404 368.955 304.13 369.379 304.205 369.778C304.279 370.127 304.603 370.351 305.002 370.351C305.077 370.351 305.127 370.351 305.201 370.326C305.226 370.326 305.251 370.326 305.251 370.301C305.301 370.301 305.351 370.276 305.401 370.276C305.575 370.226 305.7 370.177 305.849 370.102C305.924 370.077 305.999 370.027 306.074 370.002H306.098C306.572 369.828 306.996 369.678 307.394 369.628H307.444C307.594 369.628 307.693 369.703 307.768 369.753C307.793 369.753 307.793 369.778 307.818 369.778L308.167 369.728C308.765 371.572 309.911 373.217 311.431 374.413C311.78 374.687 312.129 374.911 312.503 375.135L312.353 375.459C312.353 375.484 312.378 375.484 312.378 375.509C312.428 375.609 312.478 375.733 312.428 375.908C312.279 376.282 312.054 376.655 311.78 377.079V377.104C311.73 377.179 311.681 377.229 311.631 377.303C311.531 377.428 311.456 377.553 311.356 377.702C311.332 377.727 311.307 377.777 311.282 377.827C311.282 377.852 311.257 377.876 311.257 377.876C311.058 378.3 311.207 378.774 311.581 378.948C311.68 378.998 311.78 379.023 311.88 379.023C312.179 379.023 312.478 378.823 312.627 378.549C312.627 378.524 312.652 378.499 312.652 378.499C312.677 378.45 312.702 378.4 312.727 378.375C312.802 378.2 312.827 378.076 312.877 377.926L312.951 377.702C313.126 377.204 313.25 376.805 313.475 376.456C313.574 376.307 313.699 376.282 313.799 376.232C313.823 376.232 313.823 376.232 313.848 376.207L314.023 375.883C315.119 376.307 316.316 376.531 317.512 376.531C318.234 376.531 318.982 376.456 319.68 376.282C320.119 376.184 320.551 376.059 320.975 375.908L321.125 376.182C321.15 376.182 321.15 376.182 321.175 376.207C321.299 376.232 321.399 376.282 321.499 376.431C321.698 376.78 321.847 377.204 322.022 377.677V377.702L322.097 377.926C322.147 378.076 322.171 378.225 322.246 378.375C322.271 378.425 322.296 378.45 322.321 378.499C322.321 378.524 322.346 378.549 322.346 378.549C322.495 378.848 322.794 379.023 323.093 379.023C323.193 379.023 323.293 378.998 323.392 378.948C323.567 378.848 323.716 378.699 323.766 378.499C323.816 378.3 323.816 378.076 323.717 377.876C323.717 377.852 323.692 377.852 323.692 377.827C323.667 377.777 323.642 377.727 323.617 377.702C323.542 377.553 323.442 377.428 323.343 377.303C323.293 377.229 323.243 377.179 323.193 377.104V377.079C322.919 376.655 322.67 376.282 322.545 375.908C322.496 375.733 322.545 375.634 322.57 375.509C322.57 375.484 322.595 375.484 322.595 375.459L322.47 375.16C323.791 374.388 324.913 373.291 325.76 371.946C326.208 371.248 326.557 370.475 326.806 369.703L327.105 369.753C327.13 369.753 327.13 369.728 327.155 369.728C327.255 369.678 327.33 369.603 327.479 369.603H327.529C327.928 369.653 328.351 369.803 328.825 369.977H328.85C328.925 370.002 328.999 370.052 329.074 370.077C329.224 370.151 329.348 370.201 329.523 370.251C329.572 370.251 329.622 370.276 329.672 370.276C329.697 370.276 329.722 370.276 329.747 370.301C329.822 370.326 329.871 370.326 329.946 370.326C330.32 370.326 330.644 370.077 330.744 369.753C330.744 369.454 330.47 369.055 330.021 368.931V368.93ZM318.483 367.709L317.387 368.233L316.29 367.709L316.016 366.538L316.764 365.591H317.985L318.733 366.538L318.483 367.709H318.483ZM324.987 365.118C325.181 365.942 325.24 366.792 325.162 367.635L321.349 366.538C321 366.439 320.801 366.09 320.876 365.741C320.901 365.641 320.951 365.541 321.025 365.467L324.04 362.75C324.464 363.448 324.788 364.246 324.987 365.118V365.118ZM322.844 361.255L319.58 363.573C319.306 363.747 318.932 363.697 318.708 363.423C318.633 363.349 318.608 363.249 318.583 363.149L318.359 359.087C320.056 359.283 321.637 360.047 322.844 361.255ZM315.618 359.212C315.892 359.162 316.141 359.112 316.415 359.062L316.191 363.049C316.166 363.398 315.892 363.697 315.518 363.697C315.418 363.697 315.294 363.672 315.219 363.623L311.905 361.255C312.926 360.234 314.197 359.536 315.618 359.212V359.212ZM310.709 362.75L313.674 365.392C313.948 365.616 313.973 366.04 313.749 366.314C313.674 366.413 313.574 366.488 313.45 366.513L309.587 367.635C309.438 365.94 309.811 364.221 310.709 362.75ZM310.036 369.503L313.998 368.831C314.322 368.806 314.621 369.03 314.696 369.354C314.721 369.503 314.721 369.628 314.671 369.753L313.151 373.416C311.755 372.519 310.634 371.148 310.036 369.503H310.036ZM319.131 374.462C318.558 374.587 317.985 374.662 317.387 374.662C316.515 374.662 315.667 374.512 314.87 374.263L316.839 370.7C317.038 370.475 317.362 370.376 317.636 370.525C317.753 370.597 317.854 370.69 317.935 370.799L319.854 374.263C319.63 374.338 319.38 374.388 319.131 374.462H319.131ZM323.991 370.999C323.368 371.995 322.545 372.793 321.598 373.416L320.028 369.653C319.954 369.354 320.078 369.03 320.377 368.88C320.477 368.831 320.602 368.806 320.726 368.806L324.713 369.479C324.564 370.027 324.314 370.525 323.991 370.999Z" fill="white"/>
</g>
<g clip-path="url(#clip5)">
<path d="M310.385 542.381C309.488 542.381 308.641 541.982 308.068 541.259L299.346 530.419C298.773 529.697 298.549 528.775 298.773 527.877L301.888 514.346C302.087 513.449 302.685 512.727 303.508 512.328L316.117 506.297C316.516 506.098 316.964 505.998 317.413 505.998C317.861 505.998 318.31 506.098 318.709 506.297L331.318 512.303C332.14 512.702 332.738 513.424 332.938 514.321L336.052 527.853C336.252 528.75 336.052 529.672 335.479 530.394L326.758 541.234C326.184 541.932 325.337 542.356 324.44 542.356L310.386 542.381H310.385Z" fill="#326DE6"/>
<path d="M330.021 526.93C329.996 526.93 329.996 526.93 330.021 526.93H329.996C329.971 526.93 329.946 526.93 329.946 526.906C329.897 526.906 329.847 526.881 329.797 526.881C329.622 526.856 329.473 526.831 329.323 526.831C329.249 526.831 329.174 526.831 329.074 526.806H329.049C328.526 526.756 328.102 526.706 327.704 526.582C327.529 526.507 327.479 526.407 327.429 526.307C327.429 526.283 327.404 526.283 327.404 526.258L327.081 526.158C327.234 524.986 327.175 523.796 326.906 522.644C326.634 521.483 326.162 520.379 325.511 519.38L325.76 519.156V519.106C325.76 518.981 325.785 518.857 325.884 518.732C326.183 518.458 326.557 518.234 327.006 517.96C327.081 517.91 327.155 517.885 327.23 517.835C327.38 517.76 327.504 517.686 327.654 517.586C327.679 517.561 327.728 517.536 327.778 517.486C327.803 517.461 327.828 517.461 327.828 517.436C328.177 517.137 328.252 516.639 328.003 516.315C327.878 516.14 327.654 516.041 327.429 516.041C327.23 516.041 327.056 516.115 326.881 516.24L326.831 516.29C326.782 516.315 326.757 516.365 326.707 516.39C326.582 516.514 326.482 516.614 326.383 516.738C326.333 516.788 326.283 516.863 326.208 516.913C325.859 517.287 325.536 517.586 325.212 517.81C325.137 517.86 325.062 517.885 324.987 517.885C324.938 517.885 324.888 517.885 324.838 517.86H324.788L324.489 518.059C324.165 517.71 323.816 517.411 323.467 517.112C321.965 515.938 320.157 515.22 318.259 515.044L318.234 514.72L318.184 514.67C318.11 514.595 318.01 514.521 317.985 514.346C317.96 513.947 318.01 513.499 318.06 513.001V512.976C318.06 512.901 318.085 512.801 318.11 512.726C318.135 512.577 318.159 512.427 318.184 512.253V512.029C318.184 511.58 317.835 511.206 317.412 511.206C317.212 511.206 317.013 511.306 316.864 511.456C316.714 511.605 316.639 511.804 316.639 512.029V512.228C316.639 512.402 316.664 512.552 316.714 512.702C316.739 512.776 316.739 512.851 316.764 512.951V512.976C316.814 513.474 316.889 513.923 316.839 514.321C316.814 514.496 316.714 514.57 316.639 514.645L316.59 514.695L316.565 515.019C316.116 515.069 315.667 515.119 315.219 515.218C313.3 515.642 311.606 516.614 310.285 518.009L310.036 517.835H309.986C309.936 517.835 309.886 517.86 309.836 517.86C309.762 517.86 309.687 517.835 309.612 517.785C309.288 517.561 308.964 517.237 308.615 516.863C308.566 516.813 308.516 516.738 308.441 516.689C308.341 516.564 308.242 516.464 308.117 516.34C308.092 516.315 308.042 516.29 307.992 516.24C307.968 516.215 307.943 516.215 307.943 516.19C307.788 516.063 307.595 515.992 307.394 515.991C307.17 515.991 306.946 516.091 306.821 516.265C306.572 516.589 306.647 517.087 306.996 517.386C307.02 517.386 307.02 517.411 307.045 517.411C307.095 517.436 307.12 517.486 307.17 517.511C307.32 517.611 307.444 517.685 307.594 517.76C307.669 517.785 307.743 517.835 307.818 517.885C308.266 518.159 308.64 518.383 308.939 518.657C309.064 518.782 309.064 518.906 309.064 519.031V519.081L309.313 519.305C309.263 519.38 309.214 519.43 309.188 519.504C307.943 521.473 307.469 523.791 307.793 526.083L307.469 526.183C307.469 526.208 307.444 526.208 307.444 526.233C307.394 526.332 307.32 526.432 307.17 526.507C306.796 526.631 306.348 526.681 305.824 526.731H305.799C305.725 526.731 305.625 526.731 305.55 526.756C305.401 526.756 305.251 526.781 305.077 526.806C305.027 526.806 304.977 526.831 304.927 526.831C304.902 526.831 304.878 526.831 304.853 526.856C304.404 526.955 304.13 527.379 304.205 527.778C304.279 528.127 304.603 528.351 305.002 528.351C305.077 528.351 305.127 528.351 305.201 528.326C305.226 528.326 305.251 528.326 305.251 528.301C305.301 528.301 305.351 528.276 305.401 528.276C305.575 528.226 305.7 528.177 305.849 528.102C305.924 528.077 305.999 528.027 306.074 528.002H306.098C306.572 527.828 306.996 527.678 307.394 527.628H307.444C307.594 527.628 307.693 527.703 307.768 527.753C307.793 527.753 307.793 527.778 307.818 527.778L308.167 527.728C308.765 529.572 309.911 531.217 311.431 532.413C311.78 532.687 312.129 532.911 312.503 533.135L312.353 533.459C312.353 533.484 312.378 533.484 312.378 533.509C312.428 533.609 312.478 533.733 312.428 533.908C312.279 534.282 312.054 534.655 311.78 535.079V535.104C311.73 535.179 311.681 535.229 311.631 535.303C311.531 535.428 311.456 535.553 311.356 535.702C311.332 535.727 311.307 535.777 311.282 535.827C311.282 535.852 311.257 535.876 311.257 535.876C311.058 536.3 311.207 536.774 311.581 536.948C311.68 536.998 311.78 537.023 311.88 537.023C312.179 537.023 312.478 536.823 312.627 536.549C312.627 536.524 312.652 536.499 312.652 536.499C312.677 536.45 312.702 536.4 312.727 536.375C312.802 536.2 312.827 536.076 312.877 535.926L312.951 535.702C313.126 535.204 313.25 534.805 313.475 534.456C313.574 534.307 313.699 534.282 313.799 534.232C313.823 534.232 313.823 534.232 313.848 534.207L314.023 533.883C315.119 534.307 316.316 534.531 317.512 534.531C318.234 534.531 318.982 534.456 319.68 534.282C320.119 534.184 320.551 534.059 320.975 533.908L321.125 534.182C321.15 534.182 321.15 534.182 321.175 534.207C321.299 534.232 321.399 534.282 321.499 534.431C321.698 534.78 321.847 535.204 322.022 535.677V535.702L322.097 535.926C322.147 536.076 322.171 536.225 322.246 536.375C322.271 536.425 322.296 536.45 322.321 536.499C322.321 536.524 322.346 536.549 322.346 536.549C322.495 536.848 322.794 537.023 323.093 537.023C323.193 537.023 323.293 536.998 323.392 536.948C323.567 536.848 323.716 536.699 323.766 536.499C323.816 536.3 323.816 536.076 323.717 535.876C323.717 535.852 323.692 535.852 323.692 535.827C323.667 535.777 323.642 535.727 323.617 535.702C323.542 535.553 323.442 535.428 323.343 535.303C323.293 535.229 323.243 535.179 323.193 535.104V535.079C322.919 534.655 322.67 534.282 322.545 533.908C322.496 533.733 322.545 533.634 322.57 533.509C322.57 533.484 322.595 533.484 322.595 533.459L322.47 533.16C323.791 532.388 324.913 531.291 325.76 529.946C326.208 529.248 326.557 528.475 326.806 527.703L327.105 527.753C327.13 527.753 327.13 527.728 327.155 527.728C327.255 527.678 327.33 527.603 327.479 527.603H327.529C327.928 527.653 328.351 527.803 328.825 527.977H328.85C328.925 528.002 328.999 528.052 329.074 528.077C329.224 528.151 329.348 528.201 329.523 528.251C329.572 528.251 329.622 528.276 329.672 528.276C329.697 528.276 329.722 528.276 329.747 528.301C329.822 528.326 329.871 528.326 329.946 528.326C330.32 528.326 330.644 528.077 330.744 527.753C330.744 527.454 330.47 527.055 330.021 526.931V526.93ZM318.483 525.709L317.387 526.233L316.29 525.709L316.016 524.538L316.764 523.591H317.985L318.733 524.538L318.483 525.709H318.483ZM324.987 523.118C325.181 523.942 325.24 524.792 325.162 525.635L321.349 524.538C321 524.439 320.801 524.09 320.876 523.741C320.901 523.641 320.951 523.541 321.025 523.467L324.04 520.75C324.464 521.448 324.788 522.246 324.987 523.118V523.118ZM322.844 519.255L319.58 521.573C319.306 521.747 318.932 521.697 318.708 521.423C318.633 521.349 318.608 521.249 318.583 521.149L318.359 517.087C320.056 517.283 321.637 518.047 322.844 519.255ZM315.618 517.212C315.892 517.162 316.141 517.112 316.415 517.062L316.191 521.049C316.166 521.398 315.892 521.697 315.518 521.697C315.418 521.697 315.294 521.672 315.219 521.623L311.905 519.255C312.926 518.234 314.197 517.536 315.618 517.212V517.212ZM310.709 520.75L313.674 523.392C313.948 523.616 313.973 524.04 313.749 524.314C313.674 524.413 313.574 524.488 313.45 524.513L309.587 525.635C309.438 523.94 309.811 522.221 310.709 520.75ZM310.036 527.503L313.998 526.831C314.322 526.806 314.621 527.03 314.696 527.354C314.721 527.503 314.721 527.628 314.671 527.753L313.151 531.416C311.755 530.519 310.634 529.148 310.036 527.503H310.036ZM319.131 532.462C318.558 532.587 317.985 532.662 317.387 532.662C316.515 532.662 315.667 532.512 314.87 532.263L316.839 528.7C317.038 528.475 317.362 528.376 317.636 528.525C317.753 528.597 317.854 528.69 317.935 528.799L319.854 532.263C319.63 532.338 319.38 532.388 319.131 532.462H319.131ZM323.991 528.999C323.368 529.995 322.545 530.793 321.598 531.416L320.028 527.653C319.954 527.354 320.078 527.03 320.377 526.88C320.477 526.831 320.602 526.806 320.726 526.806L324.713 527.479C324.564 528.027 324.314 528.525 323.991 528.999Z" fill="white"/>
</g>
<g clip-path="url(#clip6)">
<path d="M168.385 460.381C167.488 460.381 166.641 459.982 166.068 459.259L157.346 448.419C156.773 447.697 156.549 446.775 156.773 445.877L159.888 432.346C160.087 431.449 160.685 430.727 161.508 430.328L174.117 424.297C174.516 424.098 174.964 423.998 175.413 423.998C175.861 423.998 176.31 424.098 176.709 424.297L189.318 430.303C190.14 430.702 190.738 431.424 190.938 432.321L194.052 445.853C194.252 446.75 194.052 447.672 193.479 448.394L184.758 459.234C184.184 459.932 183.337 460.356 182.44 460.356L168.386 460.381H168.385Z" fill="#326DE6"/>
<path d="M188.021 444.93C187.996 444.93 187.996 444.93 188.021 444.93H187.996C187.971 444.93 187.946 444.93 187.946 444.906C187.897 444.906 187.847 444.881 187.797 444.881C187.622 444.856 187.473 444.831 187.323 444.831C187.249 444.831 187.174 444.831 187.074 444.806H187.049C186.526 444.756 186.102 444.706 185.704 444.582C185.529 444.507 185.479 444.407 185.429 444.307C185.429 444.283 185.404 444.283 185.404 444.258L185.081 444.158C185.234 442.986 185.175 441.796 184.906 440.644C184.634 439.483 184.162 438.379 183.511 437.38L183.76 437.156V437.106C183.76 436.981 183.785 436.857 183.884 436.732C184.183 436.458 184.557 436.234 185.006 435.96C185.081 435.91 185.155 435.885 185.23 435.835C185.38 435.76 185.504 435.686 185.654 435.586C185.679 435.561 185.728 435.536 185.778 435.486C185.803 435.461 185.828 435.461 185.828 435.436C186.177 435.137 186.252 434.639 186.003 434.315C185.878 434.14 185.654 434.041 185.429 434.041C185.23 434.041 185.056 434.115 184.881 434.24L184.831 434.29C184.782 434.315 184.757 434.365 184.707 434.39C184.582 434.514 184.482 434.614 184.383 434.738C184.333 434.788 184.283 434.863 184.208 434.913C183.859 435.287 183.536 435.586 183.212 435.81C183.137 435.86 183.062 435.885 182.987 435.885C182.938 435.885 182.888 435.885 182.838 435.86H182.788L182.489 436.059C182.165 435.71 181.816 435.411 181.467 435.112C179.965 433.938 178.157 433.22 176.259 433.044L176.234 432.72L176.184 432.67C176.11 432.595 176.01 432.521 175.985 432.346C175.96 431.947 176.01 431.499 176.06 431.001V430.976C176.06 430.901 176.085 430.801 176.11 430.726C176.135 430.577 176.159 430.427 176.184 430.253V430.029C176.184 429.58 175.835 429.206 175.412 429.206C175.212 429.206 175.013 429.306 174.864 429.456C174.714 429.605 174.639 429.804 174.639 430.029V430.228C174.639 430.402 174.664 430.552 174.714 430.702C174.739 430.776 174.739 430.851 174.764 430.951V430.976C174.814 431.474 174.889 431.923 174.839 432.321C174.814 432.496 174.714 432.57 174.639 432.645L174.59 432.695L174.565 433.019C174.116 433.069 173.667 433.119 173.219 433.218C171.3 433.642 169.606 434.614 168.285 436.009L168.036 435.835H167.986C167.936 435.835 167.886 435.86 167.836 435.86C167.762 435.86 167.687 435.835 167.612 435.785C167.288 435.561 166.964 435.237 166.615 434.863C166.566 434.813 166.516 434.738 166.441 434.689C166.341 434.564 166.242 434.464 166.117 434.34C166.092 434.315 166.042 434.29 165.992 434.24C165.968 434.215 165.943 434.215 165.943 434.19C165.788 434.063 165.595 433.992 165.394 433.991C165.17 433.991 164.946 434.091 164.821 434.265C164.572 434.589 164.647 435.087 164.996 435.386C165.02 435.386 165.02 435.411 165.045 435.411C165.095 435.436 165.12 435.486 165.17 435.511C165.32 435.611 165.444 435.685 165.594 435.76C165.669 435.785 165.743 435.835 165.818 435.885C166.266 436.159 166.64 436.383 166.939 436.657C167.064 436.782 167.064 436.906 167.064 437.031V437.081L167.313 437.305C167.263 437.38 167.214 437.43 167.188 437.504C165.943 439.473 165.469 441.791 165.793 444.083L165.469 444.183C165.469 444.208 165.444 444.208 165.444 444.233C165.394 444.332 165.32 444.432 165.17 444.507C164.796 444.631 164.348 444.681 163.824 444.731H163.799C163.725 444.731 163.625 444.731 163.55 444.756C163.401 444.756 163.251 444.781 163.077 444.806C163.027 444.806 162.977 444.831 162.927 444.831C162.902 444.831 162.878 444.831 162.853 444.856C162.404 444.955 162.13 445.379 162.205 445.778C162.279 446.127 162.603 446.351 163.002 446.351C163.077 446.351 163.127 446.351 163.201 446.326C163.226 446.326 163.251 446.326 163.251 446.301C163.301 446.301 163.351 446.276 163.401 446.276C163.575 446.226 163.7 446.177 163.849 446.102C163.924 446.077 163.999 446.027 164.074 446.002H164.098C164.572 445.828 164.996 445.678 165.394 445.628H165.444C165.594 445.628 165.693 445.703 165.768 445.753C165.793 445.753 165.793 445.778 165.818 445.778L166.167 445.728C166.765 447.572 167.911 449.217 169.431 450.413C169.78 450.687 170.129 450.911 170.503 451.135L170.353 451.459C170.353 451.484 170.378 451.484 170.378 451.509C170.428 451.609 170.478 451.733 170.428 451.908C170.279 452.282 170.054 452.655 169.78 453.079V453.104C169.73 453.179 169.681 453.229 169.631 453.303C169.531 453.428 169.456 453.553 169.356 453.702C169.332 453.727 169.307 453.777 169.282 453.827C169.282 453.852 169.257 453.876 169.257 453.876C169.058 454.3 169.207 454.774 169.581 454.948C169.68 454.998 169.78 455.023 169.88 455.023C170.179 455.023 170.478 454.823 170.627 454.549C170.627 454.524 170.652 454.499 170.652 454.499C170.677 454.45 170.702 454.4 170.727 454.375C170.802 454.2 170.827 454.076 170.877 453.926L170.951 453.702C171.126 453.204 171.25 452.805 171.475 452.456C171.574 452.307 171.699 452.282 171.799 452.232C171.823 452.232 171.823 452.232 171.848 452.207L172.023 451.883C173.119 452.307 174.316 452.531 175.512 452.531C176.234 452.531 176.982 452.456 177.68 452.282C178.119 452.184 178.551 452.059 178.975 451.908L179.125 452.182C179.15 452.182 179.15 452.182 179.175 452.207C179.299 452.232 179.399 452.282 179.499 452.431C179.698 452.78 179.847 453.204 180.022 453.677V453.702L180.097 453.926C180.147 454.076 180.171 454.225 180.246 454.375C180.271 454.425 180.296 454.45 180.321 454.499C180.321 454.524 180.346 454.549 180.346 454.549C180.495 454.848 180.794 455.023 181.093 455.023C181.193 455.023 181.293 454.998 181.392 454.948C181.567 454.848 181.716 454.699 181.766 454.499C181.816 454.3 181.816 454.076 181.717 453.876C181.717 453.852 181.692 453.852 181.692 453.827C181.667 453.777 181.642 453.727 181.617 453.702C181.542 453.553 181.442 453.428 181.343 453.303C181.293 453.229 181.243 453.179 181.193 453.104V453.079C180.919 452.655 180.67 452.282 180.545 451.908C180.496 451.733 180.545 451.634 180.57 451.509C180.57 451.484 180.595 451.484 180.595 451.459L180.47 451.16C181.791 450.388 182.913 449.291 183.76 447.946C184.208 447.248 184.557 446.475 184.806 445.703L185.105 445.753C185.13 445.753 185.13 445.728 185.155 445.728C185.255 445.678 185.33 445.603 185.479 445.603H185.529C185.928 445.653 186.351 445.803 186.825 445.977H186.85C186.925 446.002 186.999 446.052 187.074 446.077C187.224 446.151 187.348 446.201 187.523 446.251C187.572 446.251 187.622 446.276 187.672 446.276C187.697 446.276 187.722 446.276 187.747 446.301C187.822 446.326 187.871 446.326 187.946 446.326C188.32 446.326 188.644 446.077 188.744 445.753C188.744 445.454 188.47 445.055 188.021 444.931V444.93ZM176.483 443.709L175.387 444.233L174.29 443.709L174.016 442.538L174.764 441.591H175.985L176.733 442.538L176.483 443.709H176.483ZM182.987 441.118C183.181 441.942 183.24 442.792 183.162 443.635L179.349 442.538C179 442.439 178.801 442.09 178.876 441.741C178.901 441.641 178.951 441.541 179.025 441.467L182.04 438.75C182.464 439.448 182.788 440.246 182.987 441.118V441.118ZM180.844 437.255L177.58 439.573C177.306 439.747 176.932 439.697 176.708 439.423C176.633 439.349 176.608 439.249 176.583 439.149L176.359 435.087C178.056 435.283 179.637 436.047 180.844 437.255ZM173.618 435.212C173.892 435.162 174.141 435.112 174.415 435.062L174.191 439.049C174.166 439.398 173.892 439.697 173.518 439.697C173.418 439.697 173.294 439.672 173.219 439.623L169.905 437.255C170.926 436.234 172.197 435.536 173.618 435.212V435.212ZM168.709 438.75L171.674 441.392C171.948 441.616 171.973 442.04 171.749 442.314C171.674 442.413 171.574 442.488 171.45 442.513L167.587 443.635C167.438 441.94 167.811 440.221 168.709 438.75ZM168.036 445.503L171.998 444.831C172.322 444.806 172.621 445.03 172.696 445.354C172.721 445.503 172.721 445.628 172.671 445.753L171.151 449.416C169.755 448.519 168.634 447.148 168.036 445.503H168.036ZM177.131 450.462C176.558 450.587 175.985 450.662 175.387 450.662C174.515 450.662 173.667 450.512 172.87 450.263L174.839 446.7C175.038 446.475 175.362 446.376 175.636 446.525C175.753 446.597 175.854 446.69 175.935 446.799L177.854 450.263C177.63 450.338 177.38 450.388 177.131 450.462H177.131ZM181.991 446.999C181.368 447.995 180.545 448.793 179.598 449.416L178.028 445.653C177.954 445.354 178.078 445.03 178.377 444.88C178.477 444.831 178.602 444.806 178.726 444.806L182.713 445.479C182.564 446.027 182.314 446.525 181.991 446.999Z" fill="white"/>
</g>
<path d="M571.124 408.505L601.012 390.303" stroke="#326DE6" stroke-dasharray="4.15 4.15"/>
<path d="M571.124 688.505L601.012 670.303" stroke="#FF9900" stroke-dasharray="4.15 4.15"/>
<path d="M564.124 140.505L594.012 122.303" stroke="#7173CD" stroke-dasharray="4.15 4.15"/>
<rect x="610" y="373" width="96" height="25" rx="3" fill="#326DE6"/>
<path d="M621.414 390H619.65V380.136H621.414V384.675H621.53L625.42 380.136H627.443L623.718 384.436L627.737 390H625.584L622.467 385.646L621.414 386.855V390ZM635.182 382.521V390H633.548V388.811H633.432C633.053 389.704 632.308 390.15 631.196 390.15C630.381 390.15 629.745 389.909 629.289 389.426C628.833 388.938 628.605 388.257 628.605 387.382V382.521H630.301V386.958C630.301 387.532 630.422 387.961 630.663 388.243C630.905 388.521 631.278 388.66 631.784 388.66C632.331 388.66 632.75 388.503 633.042 388.188C633.338 387.874 633.486 387.437 633.486 386.876V382.521H635.182ZM641.416 390.123C640.892 390.123 640.425 390.009 640.015 389.781C639.604 389.549 639.292 389.228 639.078 388.817H638.962V390H637.328V379.63H639.023V383.711H639.14C639.336 383.305 639.636 382.986 640.042 382.754C640.448 382.517 640.906 382.398 641.416 382.398C642.364 382.398 643.111 382.745 643.658 383.438C644.21 384.126 644.485 385.067 644.485 386.261C644.485 387.45 644.21 388.391 643.658 389.084C643.107 389.777 642.359 390.123 641.416 390.123ZM642.243 384.49C641.915 384.057 641.462 383.841 640.883 383.841C640.304 383.841 639.844 384.06 639.502 384.497C639.165 384.93 638.996 385.518 638.996 386.261C638.996 387.008 639.165 387.598 639.502 388.031C639.844 388.464 640.304 388.681 640.883 388.681C641.462 388.681 641.915 388.466 642.243 388.038C642.576 387.605 642.742 387.013 642.742 386.261C642.742 385.509 642.576 384.919 642.243 384.49ZM649.325 383.718C648.819 383.718 648.402 383.884 648.074 384.217C647.746 384.549 647.564 384.989 647.527 385.536H651.048C651.03 384.98 650.866 384.538 650.556 384.21C650.246 383.882 649.836 383.718 649.325 383.718ZM651.062 387.942H652.668C652.508 388.626 652.132 389.166 651.54 389.562C650.952 389.954 650.221 390.15 649.346 390.15C648.247 390.15 647.384 389.809 646.755 389.125C646.131 388.437 645.818 387.491 645.818 386.288C645.818 385.085 646.133 384.132 646.762 383.431C647.391 382.724 648.247 382.371 649.332 382.371C650.398 382.371 651.232 382.706 651.834 383.376C652.44 384.041 652.743 384.964 652.743 386.145V386.691H647.521V386.78C647.543 387.405 647.721 387.899 648.054 388.264C648.391 388.624 648.838 388.804 649.394 388.804C650.25 388.804 650.806 388.517 651.062 387.942ZM654.445 390V382.521H656.079V383.684H656.195C656.3 383.31 656.535 383.002 656.899 382.761C657.269 382.519 657.692 382.398 658.171 382.398C658.476 382.398 658.711 382.424 658.875 382.474V384.046C658.702 383.982 658.412 383.95 658.007 383.95C657.455 383.95 657.007 384.11 656.66 384.429C656.314 384.743 656.141 385.16 656.141 385.68V390H654.445ZM660.365 390V382.521H661.999V383.718H662.115C662.298 383.289 662.576 382.959 662.949 382.727C663.327 382.49 663.79 382.371 664.337 382.371C665.166 382.371 665.802 382.613 666.244 383.096C666.691 383.579 666.914 384.267 666.914 385.16V390H665.219V385.563C665.219 384.42 664.715 383.848 663.708 383.848C663.202 383.848 662.801 384.009 662.505 384.333C662.209 384.657 662.061 385.094 662.061 385.646V390H660.365ZM672.062 383.718C671.556 383.718 671.139 383.884 670.811 384.217C670.482 384.549 670.3 384.989 670.264 385.536H673.784C673.766 384.98 673.602 384.538 673.292 384.21C672.982 383.882 672.572 383.718 672.062 383.718ZM673.798 387.942H675.404C675.245 388.626 674.869 389.166 674.276 389.562C673.688 389.954 672.957 390.15 672.082 390.15C670.984 390.15 670.12 389.809 669.491 389.125C668.867 388.437 668.555 387.491 668.555 386.288C668.555 385.085 668.869 384.132 669.498 383.431C670.127 382.724 670.984 382.371 672.068 382.371C673.135 382.371 673.969 382.706 674.57 383.376C675.176 384.041 675.479 384.964 675.479 386.145V386.691H670.257V386.78C670.28 387.405 670.457 387.899 670.79 388.264C671.127 388.624 671.574 388.804 672.13 388.804C672.987 388.804 673.543 388.517 673.798 387.942ZM677.722 380.689H679.41V382.569H681.01V383.923H679.41V387.594C679.41 387.963 679.492 388.234 679.656 388.407C679.82 388.576 680.08 388.66 680.436 388.66C680.59 388.66 680.782 388.649 681.01 388.626V389.952C680.727 390.007 680.431 390.034 680.121 390.034C679.264 390.034 678.649 389.877 678.275 389.562C677.906 389.248 677.722 388.729 677.722 388.004V383.923H676.539V382.569H677.722V380.689ZM685.774 383.718C685.269 383.718 684.852 383.884 684.523 384.217C684.195 384.549 684.013 384.989 683.977 385.536H687.497C687.479 384.98 687.315 384.538 687.005 384.21C686.695 383.882 686.285 383.718 685.774 383.718ZM687.511 387.942H689.117C688.958 388.626 688.582 389.166 687.989 389.562C687.401 389.954 686.67 390.15 685.795 390.15C684.697 390.15 683.833 389.809 683.204 389.125C682.58 388.437 682.268 387.491 682.268 386.288C682.268 385.085 682.582 384.132 683.211 383.431C683.84 382.724 684.697 382.371 685.781 382.371C686.848 382.371 687.682 382.706 688.283 383.376C688.889 384.041 689.192 384.964 689.192 386.145V386.691H683.97V386.78C683.993 387.405 684.17 387.899 684.503 388.264C684.84 388.624 685.287 388.804 685.843 388.804C686.7 388.804 687.256 388.517 687.511 387.942ZM690.724 384.661C690.724 383.987 691.002 383.438 691.558 383.014C692.114 382.585 692.834 382.371 693.718 382.371C694.606 382.371 695.315 382.56 695.844 382.938C696.377 383.312 696.673 383.839 696.732 384.518H695.14C695.076 384.249 694.921 384.039 694.675 383.889C694.433 383.734 694.117 383.656 693.725 383.656C693.333 383.656 693.009 383.741 692.754 383.909C692.499 384.078 692.371 384.297 692.371 384.565C692.371 384.775 692.46 384.948 692.638 385.085C692.82 385.222 693.1 385.333 693.479 385.42L694.798 385.721C695.518 385.885 696.047 386.129 696.384 386.452C696.721 386.776 696.89 387.211 696.89 387.758C696.89 388.473 696.593 389.052 696.001 389.494C695.409 389.932 694.643 390.15 693.704 390.15C692.77 390.15 692.022 389.959 691.462 389.576C690.906 389.193 690.596 388.662 690.532 387.983H692.207C692.289 388.266 692.46 388.485 692.72 388.64C692.984 388.79 693.326 388.865 693.745 388.865C694.174 388.865 694.522 388.781 694.791 388.612C695.06 388.439 695.194 388.214 695.194 387.936C695.194 387.521 694.85 387.238 694.162 387.088L692.836 386.78C692.116 386.616 691.583 386.363 691.236 386.021C690.895 385.675 690.724 385.222 690.724 384.661Z" fill="#E9EAFA"/>
<rect x="605" y="653" width="126" height="25" rx="3" fill="#FF9900"/>
<path d="M618.645 670.246C617.245 670.246 616.14 669.784 615.329 668.858C614.518 667.929 614.112 666.666 614.112 665.071C614.112 663.467 614.516 662.202 615.322 661.277C616.133 660.352 617.239 659.89 618.638 659.89C619.759 659.89 620.709 660.22 621.488 660.881C622.268 661.537 622.71 662.38 622.814 663.41H621.078C620.955 662.818 620.673 662.346 620.23 661.995C619.788 661.64 619.257 661.462 618.638 661.462C617.799 661.462 617.136 661.785 616.648 662.433C616.161 663.075 615.917 663.952 615.917 665.064C615.917 666.176 616.161 667.056 616.648 667.703C617.136 668.35 617.801 668.674 618.645 668.674C619.269 668.674 619.802 668.512 620.244 668.188C620.686 667.86 620.966 667.421 621.085 666.869H622.821C622.703 667.881 622.261 668.697 621.495 669.316C620.729 669.936 619.779 670.246 618.645 670.246ZM624.674 670V659.63H626.369V670H624.674ZM630.368 668.086C630.692 668.514 631.15 668.729 631.742 668.729C632.335 668.729 632.79 668.514 633.109 668.086C633.433 667.653 633.595 667.045 633.595 666.261C633.595 665.481 633.433 664.875 633.109 664.442C632.786 664.009 632.33 663.793 631.742 663.793C631.15 663.793 630.692 664.009 630.368 664.442C630.045 664.875 629.883 665.481 629.883 666.261C629.883 667.045 630.045 667.653 630.368 668.086ZM631.742 670.15C630.621 670.15 629.742 669.806 629.104 669.118C628.465 668.425 628.146 667.473 628.146 666.261C628.146 665.058 628.468 664.11 629.11 663.417C629.753 662.72 630.63 662.371 631.742 662.371C632.859 662.371 633.736 662.717 634.374 663.41C635.017 664.103 635.338 665.053 635.338 666.261C635.338 667.473 635.017 668.425 634.374 669.118C633.736 669.806 632.859 670.15 631.742 670.15ZM643.555 662.521V670H641.921V668.811H641.805C641.426 669.704 640.681 670.15 639.569 670.15C638.754 670.15 638.118 669.909 637.662 669.426C637.206 668.938 636.979 668.257 636.979 667.382V662.521H638.674V666.958C638.674 667.532 638.795 667.961 639.036 668.243C639.278 668.521 639.651 668.66 640.157 668.66C640.704 668.66 641.123 668.503 641.415 668.188C641.711 667.874 641.859 667.437 641.859 666.876V662.521H643.555ZM648.34 670.123C647.392 670.123 646.642 669.777 646.091 669.084C645.539 668.387 645.264 667.443 645.264 666.254C645.264 665.074 645.539 664.137 646.091 663.444C646.647 662.747 647.396 662.398 648.34 662.398C648.85 662.398 649.306 662.515 649.707 662.747C650.108 662.979 650.409 663.301 650.609 663.711H650.726V659.63H652.421V670H650.78V668.817H650.664C650.45 669.228 650.138 669.549 649.728 669.781C649.322 670.009 648.859 670.123 648.34 670.123ZM650.24 664.49C649.903 664.057 649.445 663.841 648.866 663.841C648.287 663.841 647.832 664.057 647.499 664.49C647.166 664.919 647 665.509 647 666.261C647 667.017 647.164 667.61 647.492 668.038C647.825 668.466 648.283 668.681 648.866 668.681C649.45 668.681 649.908 668.466 650.24 668.038C650.577 667.605 650.746 667.013 650.746 666.261C650.746 665.513 650.577 664.923 650.24 664.49ZM658.471 660.136H662.449C663.434 660.136 664.231 660.443 664.842 661.059C665.457 661.674 665.765 662.478 665.765 663.472C665.765 664.447 665.448 665.24 664.814 665.851C664.186 666.461 663.372 666.767 662.374 666.767H660.234V670H658.471V660.136ZM660.234 661.612V665.304H661.978C662.611 665.304 663.101 665.144 663.447 664.825C663.798 664.506 663.974 664.055 663.974 663.472C663.974 662.87 663.8 662.41 663.454 662.091C663.112 661.772 662.622 661.612 661.984 661.612H660.234ZM667.535 670V662.521H669.169V663.684H669.285C669.39 663.31 669.625 663.002 669.989 662.761C670.358 662.519 670.782 662.398 671.261 662.398C671.566 662.398 671.801 662.424 671.965 662.474V664.046C671.792 663.982 671.502 663.95 671.097 663.95C670.545 663.95 670.096 664.11 669.75 664.429C669.404 664.743 669.23 665.16 669.23 665.68V670H667.535ZM675.021 668.086C675.344 668.514 675.802 668.729 676.395 668.729C676.987 668.729 677.443 668.514 677.762 668.086C678.085 667.653 678.247 667.045 678.247 666.261C678.247 665.481 678.085 664.875 677.762 664.442C677.438 664.009 676.982 663.793 676.395 663.793C675.802 663.793 675.344 664.009 675.021 664.442C674.697 664.875 674.535 665.481 674.535 666.261C674.535 667.045 674.697 667.653 675.021 668.086ZM676.395 670.15C675.273 670.15 674.394 669.806 673.756 669.118C673.118 668.425 672.799 667.473 672.799 666.261C672.799 665.058 673.12 664.11 673.763 663.417C674.405 662.72 675.283 662.371 676.395 662.371C677.511 662.371 678.388 662.717 679.026 663.41C679.669 664.103 679.99 665.053 679.99 666.261C679.99 667.473 679.669 668.425 679.026 669.118C678.388 669.806 677.511 670.15 676.395 670.15ZM680.749 662.521H682.567L684.297 668.305H684.413L686.129 662.521H687.92L685.274 670H683.408L680.749 662.521ZM689.376 670V662.521H691.064V670H689.376ZM690.217 661.305C689.911 661.305 689.661 661.218 689.465 661.045C689.269 660.867 689.171 660.642 689.171 660.368C689.171 660.095 689.269 659.871 689.465 659.698C689.661 659.521 689.911 659.432 690.217 659.432C690.527 659.432 690.777 659.521 690.969 659.698C691.165 659.871 691.263 660.095 691.263 660.368C691.263 660.642 691.165 660.867 690.969 661.045C690.777 661.218 690.527 661.305 690.217 661.305ZM695.877 670.123C694.929 670.123 694.179 669.777 693.628 669.084C693.076 668.387 692.801 667.443 692.801 666.254C692.801 665.074 693.076 664.137 693.628 663.444C694.184 662.747 694.934 662.398 695.877 662.398C696.387 662.398 696.843 662.515 697.244 662.747C697.645 662.979 697.946 663.301 698.146 663.711H698.263V659.63H699.958V670H698.317V668.817H698.201C697.987 669.228 697.675 669.549 697.265 669.781C696.859 670.009 696.396 670.123 695.877 670.123ZM697.777 664.49C697.44 664.057 696.982 663.841 696.403 663.841C695.825 663.841 695.369 664.057 695.036 664.49C694.703 664.919 694.537 665.509 694.537 666.261C694.537 667.017 694.701 667.61 695.029 668.038C695.362 668.466 695.82 668.681 696.403 668.681C696.987 668.681 697.445 668.466 697.777 668.038C698.115 667.605 698.283 667.013 698.283 666.261C698.283 665.513 698.115 664.923 697.777 664.49ZM705.235 663.718C704.729 663.718 704.312 663.884 703.984 664.217C703.656 664.549 703.474 664.989 703.438 665.536H706.958C706.94 664.98 706.776 664.538 706.466 664.21C706.156 663.882 705.746 663.718 705.235 663.718ZM706.972 667.942H708.578C708.419 668.626 708.043 669.166 707.45 669.562C706.862 669.954 706.131 670.15 705.256 670.15C704.158 670.15 703.294 669.809 702.665 669.125C702.041 668.437 701.729 667.491 701.729 666.288C701.729 665.085 702.043 664.132 702.672 663.431C703.301 662.724 704.158 662.371 705.242 662.371C706.309 662.371 707.143 662.706 707.744 663.376C708.35 664.041 708.653 664.964 708.653 666.145V666.691H703.431V666.78C703.453 667.405 703.631 667.899 703.964 668.264C704.301 668.624 704.748 668.804 705.304 668.804C706.16 668.804 706.716 668.517 706.972 667.942ZM710.355 670V662.521H711.989V663.684H712.105C712.21 663.31 712.445 663.002 712.81 662.761C713.179 662.519 713.603 662.398 714.081 662.398C714.386 662.398 714.621 662.424 714.785 662.474V664.046C714.612 663.982 714.323 663.95 713.917 663.95C713.366 663.95 712.917 664.11 712.57 664.429C712.224 664.743 712.051 665.16 712.051 665.68V670H710.355ZM715.845 664.661C715.845 663.987 716.123 663.438 716.679 663.014C717.235 662.585 717.955 662.371 718.839 662.371C719.728 662.371 720.436 662.56 720.965 662.938C721.498 663.312 721.794 663.839 721.854 664.518H720.261C720.197 664.249 720.042 664.039 719.796 663.889C719.554 663.734 719.238 663.656 718.846 663.656C718.454 663.656 718.13 663.741 717.875 663.909C717.62 664.078 717.492 664.297 717.492 664.565C717.492 664.775 717.581 664.948 717.759 665.085C717.941 665.222 718.221 665.333 718.6 665.42L719.919 665.721C720.639 665.885 721.168 666.129 721.505 666.452C721.842 666.776 722.011 667.211 722.011 667.758C722.011 668.473 721.715 669.052 721.122 669.494C720.53 669.932 719.764 670.15 718.825 670.15C717.891 670.15 717.144 669.959 716.583 669.576C716.027 669.193 715.717 668.662 715.653 667.983H717.328C717.41 668.266 717.581 668.485 717.841 668.64C718.105 668.79 718.447 668.865 718.866 668.865C719.295 668.865 719.643 668.781 719.912 668.612C720.181 668.439 720.315 668.214 720.315 667.936C720.315 667.521 719.971 667.238 719.283 667.088L717.957 666.78C717.237 666.616 716.704 666.363 716.357 666.021C716.016 665.675 715.845 665.222 715.845 664.661Z" fill="#E9EAFA"/>
<rect x="603" y="106" width="66" height="25" rx="3" fill="#7173CD"/>
<path d="M621.2 124.019L619.97 122.2C621.009 121.366 621.597 119.91 621.597 118.071C621.597 114.879 619.792 112.89 616.941 112.89C614.077 112.89 612.266 114.872 612.266 118.071C612.266 121.277 614.057 123.246 616.941 123.246C617.563 123.246 618.158 123.15 618.678 122.973L619.43 124.019H621.2ZM616.941 121.681C615.185 121.681 614.07 120.293 614.07 118.071C614.07 115.85 615.185 114.455 616.941 114.455C618.678 114.455 619.792 115.856 619.792 118.071C619.792 119.22 619.478 120.136 618.91 120.662L618.288 119.883H616.593L617.775 121.564C617.509 121.64 617.229 121.681 616.941 121.681ZM626.669 121.729C625.486 121.729 624.81 120.826 624.81 119.261C624.81 117.702 625.486 116.793 626.669 116.793C627.845 116.793 628.521 117.702 628.521 119.261C628.521 120.826 627.852 121.729 626.669 121.729ZM626.669 123.15C628.904 123.15 630.265 121.688 630.265 119.261C630.265 116.841 628.897 115.371 626.669 115.371C624.447 115.371 623.073 116.848 623.073 119.261C623.073 121.688 624.427 123.15 626.669 123.15ZM631.023 115.521L633.683 123H635.549L638.194 115.521H636.403L634.688 121.305H634.571L632.842 115.521H631.023ZM642.467 116.718C643.485 116.718 644.155 117.429 644.189 118.536H640.669C640.744 117.442 641.455 116.718 642.467 116.718ZM644.203 120.942C643.957 121.496 643.376 121.804 642.535 121.804C641.421 121.804 640.703 121.024 640.662 119.78V119.691H645.885V119.145C645.885 116.786 644.606 115.371 642.474 115.371C640.307 115.371 638.96 116.882 638.96 119.288C638.96 121.694 640.286 123.15 642.487 123.15C644.251 123.15 645.488 122.303 645.81 120.942H644.203ZM647.587 123H649.282V118.68C649.282 117.634 650.048 116.95 651.148 116.95C651.436 116.95 651.887 116.998 652.017 117.046V115.474C651.859 115.426 651.559 115.398 651.312 115.398C650.349 115.398 649.542 115.945 649.337 116.684H649.221V115.521H647.587V123ZM654.3 125.714C655.975 125.714 656.774 125.099 657.41 123.239L660.11 115.521H658.319L656.576 121.359H656.46L654.71 115.521H652.851L655.523 123.034L655.435 123.362C655.216 124.053 654.812 124.326 654.095 124.326C653.979 124.326 653.726 124.319 653.63 124.299V125.687C653.739 125.707 654.197 125.714 654.3 125.714Z" fill="#E9EAFA"/>
<rect opacity="0.05" width="365.864" height="368.956" rx="1.44" transform="matrix(0.866044 -0.499967 0.866044 0.499967 1.87012 182.784)" fill="#8686B3"/>
<rect opacity="0.9" width="307.8" height="303.328" rx="1.44" transform="matrix(0.866044 -0.499967 0.866044 0.499967 57 181.89)" fill="#7173CD"/>
<path d="M341.582 147.244V197.361L366 183.204V132.178L341.582 147.244Z" fill="#33369F"/>
<path d="M320.706 105L273 131.194L299.152 147.244L320.63 135.131L341.582 147.244L366 132.178L320.706 105Z" fill="#B7B9E7"/>
<path d="M273 131.194L299.227 147.244L299.001 172L328.242 187.898L328.544 215L273 183.355V131.194Z" fill="#7173CD"/>
<path d="M320.63 135.131L341.581 147.243C341.581 147.243 341.638 172.335 341.638 171.956C343.16 172.691 320.931 160.87 320.931 160.87L320.63 135.131Z" fill="#7173CD"/>
<path d="M299 171.999L320.931 160.87L320.63 135.131L299.226 147.243L299 171.999Z" fill="#33369F"/>
<path d="M328.241 187.897L299 171.999L320.931 160.87L348.967 175.86L328.241 187.897Z" fill="#B7B9E7"/>
<path d="M328.545 215L348.592 201.449L348.968 175.86L328.243 187.897L328.545 215Z" fill="#33369F"/>
<defs>
<clipPath id="clip0">
<rect width="83" height="36" fill="white" transform="translate(130 700)"/>
</clipPath>
<clipPath id="clip1">
<rect width="82.985" height="23.71" fill="white" transform="translate(273 629)"/>
</clipPath>
<clipPath id="clip2">
<rect width="44.2" height="25.5" fill="white" transform="translate(292 798)"/>
</clipPath>
<clipPath id="clip3">
<rect width="38.6249" height="37.5687" fill="white" transform="translate(434 417.425)"/>
</clipPath>
<clipPath id="clip4">
<rect width="38.6249" height="37.5687" fill="white" transform="translate(298 347.425)"/>
</clipPath>
<clipPath id="clip5">
<rect width="38.6249" height="37.5687" fill="white" transform="translate(298 505.425)"/>
</clipPath>
<clipPath id="clip6">
<rect width="38.6249" height="37.5687" fill="white" transform="translate(156 423.425)"/>
</clipPath>
</defs>
</svg>
